<?xml version="1.0" standalone="no"?>
<!DOCTYPE svg PUBLIC "-//W3C//DTD SVG 20010904//EN"
 "http://www.w3.org/TR/2001/REC-SVG-20010904/DTD/svg10.dtd">
<svg version="1.0" xmlns="http://www.w3.org/2000/svg"
 width="260.000000pt" height="260.000000pt" viewBox="0 0 260.000000 260.000000"
 preserveAspectRatio="xMidYMid meet">
<metadata>
Created by potrace 1.14, written by Peter Selinger 2001-2017
</metadata>
<g transform="translate(0.000000,260.000000) scale(0.100000,-0.100000)"
fill="#000000" stroke="none">
<path d="M95 2359 c49 -59 128 -126 180 -155 11 -6 36 -20 55 -31 31 -17 138
-61 165 -67 6 -2 28 -8 50 -14 22 -6 55 -14 73 -17 17 -3 45 -7 60 -10 63 -11
155 -17 312 -20 175 -4 312 -12 370 -20 19 -3 50 -8 69 -11 18 -2 42 -9 52
-14 10 -6 22 -9 26 -9 4 1 17 -1 28 -6 65 -26 115 -49 155 -73 25 -14 49 -25
53 -24 5 1 6 -2 2 -8 -3 -5 -2 -10 2 -10 13 0 73 -58 111 -107 120 -155 97
-387 -54 -524 -20 -19 -45 -42 -55 -51 -11 -10 -19 -15 -19 -12 0 3 -12 -3
-27 -14 -31 -21 -164 -78 -203 -86 -133 -29 -176 -34 -300 -31 -74 1 -148 8
-164 14 -16 6 -31 9 -34 6 -3 -2 -11 0 -19 6 -7 6 -13 9 -13 6 0 -4 -20 2 -44
13 -24 10 -47 16 -50 13 -3 -4 -6 -2 -6 4 0 8 -41 33 -56 33 -6 0 59 -63 104
-101 47 -40 165 -96 247 -117 106 -29 293 -31 415 -7 14 3 37 7 51 10 119 22
303 95 399 159 77 52 209 193 202 217 -1 5 2 9 7 9 7 0 33 50 37 73 1 4 3 9 4
12 1 3 4 10 5 15 1 6 3 11 5 13 19 23 19 181 0 250 -20 75 -63 165 -96 201
-14 14 -23 26 -20 26 3 0 -16 20 -42 45 -26 25 -54 52 -63 60 -9 8 -20 15 -26
15 -6 0 -13 7 -17 15 -3 8 -12 15 -20 15 -8 0 -16 4 -18 8 -4 11 -173 92 -191
92 -9 0 -19 5 -22 11 -4 6 -13 8 -21 5 -7 -3 -16 -1 -19 3 -4 8 -40 17 -100
27 -11 1 -29 5 -41 8 -70 15 -174 19 -569 22 -242 2 -456 5 -475 7 -72 8 -134
18 -140 22 -4 3 -22 7 -41 9 -51 8 -63 11 -76 19 -7 5 -21 10 -30 12 -10 2
-31 9 -48 16 -16 7 -33 12 -37 11 -5 -1 -8 3 -8 9 0 5 -4 8 -9 5 -5 -4 -11 -3
-13 1 -1 5 -19 17 -38 27 l-35 19 20 -24z"/>
<path d="M911 1619 c-350 -88 -636 -311 -718 -559 -28 -85 -24 -257 7 -330 99
-230 323 -378 631 -418 73 -9 251 -8 312 2 20 3 54 8 75 12 20 3 159 29 307
59 291 58 327 64 389 71 23 3 50 8 61 11 11 3 89 7 173 8 156 2 259 -12 347
-49 90 -38 -21 49 -136 106 -129 65 -209 81 -404 82 -180 1 -200 -1 -420 -39
-213 -36 -249 -40 -400 -40 -100 1 -158 6 -205 18 -214 58 -363 199 -388 367
-28 196 101 386 345 509 69 34 189 76 243 85 19 3 49 9 65 12 84 18 278 2 370
-30 40 -14 -43 49 -107 81 -154 79 -344 94 -547 42z"/>
</g>
</svg>
