<svg xmlns="http://www.w3.org/2000/svg" version="1.1" xmlns:xlink="http://www.w3.org/1999/xlink" xmlns:svgjs="http://svgjs.dev/svgjs" width="1500" height="1500" viewBox="0 0 1500 1500"><rect width="1500" height="1500" fill="#000000"></rect><g transform="matrix(0.6666666666666666,0,0,0.6666666666666666,249.39393939393938,438.5856950067477)"><svg viewBox="0 0 396 247" data-background-color="#ffffff" preserveAspectRatio="xMidYMid meet" height="935" width="1500" xmlns="http://www.w3.org/2000/svg" xmlns:xlink="http://www.w3.org/1999/xlink"><g id="tight-bounds" transform="matrix(1,0,0,1,0.2400000000000091,-0.09999999999999432)"><svg viewBox="0 0 395.52 247.2" height="247.2" width="395.52"><g><svg></svg></g><g><svg viewBox="0 0 395.52 247.2" height="247.2" width="395.52"><mask id="18349a21-69f6-4df6-a5e1-01aaf15e5928"><rect width="640" height="400" fill="white"></rect><g transform="matrix(1,0,0,1,39.55199999999999,46.24737079278515)"><svg viewBox="0 0 316.416 154.7052584144297" height="154.7052584144297" width="316.416"><g><svg viewBox="0 0 316.416 154.7052584144297" height="154.7052584144297" width="316.416"><g><svg viewBox="0 0 316.416 154.7052584144297" height="154.7052584144297" width="316.416"><g><svg viewBox="0 0 316.416 154.7052584144297" height="154.7052584144297" width="316.416"><g id="SvgjsG1135"><svg viewBox="0 0 316.416 154.7052584144297" height="154.7052584144297" width="316.416" id="SvgjsSvg1134"><g><svg viewBox="0 0 316.416 95.52864732824428" height="95.52864732824428" width="316.416"><g transform="matrix(1,0,0,1,0,0)"><svg width="316.416" viewBox="-3.75 -36.05 131.99 40.55" height="95.52864732824428" data-palette-color="#61777f"><path d="M21.25-23.95L28.65-23.95 25.6 0 16.45 0 14.5-10.1 14.15-10.1 12.25 0 3.3 0 0.25-23.95 7.95-23.95 9-11.85 9.4-11.85 11.1-23.95 18.05-23.95 19.7-11.85 20.15-11.85 21.25-23.95ZM30-12.08Q30-18.65 32.52-21.6 35.05-24.55 40.42-24.55 45.8-24.55 48.25-21.65 50.7-18.75 50.7-12.13 50.7-5.5 48.3-2.5 45.9 0.5 40.45 0.5 35 0.5 32.5-2.5 30-5.5 30-12.08ZM42.02-16.8Q41.7-17.8 40.4-17.8 39.1-17.8 38.75-16.8 38.4-15.8 38.4-12.6L38.4-12.6 38.4-11.4Q38.4-7.85 38.75-6.8 39.1-5.75 40.37-5.75 41.65-5.75 42-6.8 42.35-7.85 42.35-11.1L42.35-11.1 42.35-12.55Q42.35-15.8 42.02-16.8ZM61.59-13.45L61.59-13.45 61.59 0 53.3 0 53.3-23.95 60.59-23.95 61.09-22.5 61.3-22.5Q62.45-23.8 63.62-24.18 64.8-24.55 67.45-24.55L67.45-24.55 67.09-16.55 64.8-16.55Q62.84-16.55 62.22-15.95 61.59-15.35 61.59-13.45ZM90.89-5.75L90.14 0.3 86.79 0.5Q82.94 0.5 82.09-2.05L82.09-2.05 81.84-2.05Q80.19 0.5 76.79 0.5L76.79 0.5Q72.29 0.5 70.47-2.65 68.64-5.8 68.64-12.03 68.64-18.25 70.69-21.4 72.74-24.55 76.59-24.55L76.59-24.55Q79.24-24.55 80.69-23.3L80.69-23.3 80.69-32.05 89.04-32.05 89.04-7.35Q89.04-6.4 89.44-6.08 89.84-5.75 90.89-5.75L90.89-5.75ZM78.82-17.5Q77.74-17.5 77.39-16.23 77.04-14.95 77.04-12.58 77.04-10.2 77.09-9.35 77.14-8.5 77.32-7.63 77.49-6.75 77.87-6.43 78.24-6.1 79.12-6.1 79.99-6.1 80.94-6.55L80.94-6.55 80.94-16.9Q79.89-17.5 78.82-17.5ZM92.79-5.5L92.79-5.5 92.79-32.05 101.04-32.05 101.04-8.15Q101.04-7.3 101.42-6.95 101.79-6.6 102.74-6.6L102.74-6.6 102.09 0.5 99.34 0.5Q96.04 0.5 94.42-0.88 92.79-2.25 92.79-5.5ZM114.44-17.4L114.44-17.4Q113.14-17.4 112.74-16.53 112.34-15.65 112.34-13.85L112.34-13.85 116.69-13.85 116.69-15.05Q116.69-17.4 114.44-17.4ZM114.64-24.55L114.64-24.55Q119.79-24.55 122.01-22.08 124.24-19.6 124.24-15L124.24-15Q124.24-14.4 123.89-9.6L123.89-9.6 112.49-9.6Q112.49-5.85 115.94-5.85L115.94-5.85Q117.59-5.85 122.39-7L122.39-7 123.09-0.8Q118.89 0.5 114.69 0.5L114.69 0.5Q109.54 0.5 106.79-2.88 104.04-6.25 104.04-12.05L104.04-12.05Q104.04-24.55 114.64-24.55Z" opacity="1" transform="matrix(1,0,0,1,0,0)" fill="black" class="wordmark-text-0" id="SvgjsPath1133" stroke-width="7" stroke="black" stroke-linejoin="round"></path></svg></g></svg></g><g transform="matrix(1,0,0,1,3.5,114.0891601427542)"><svg viewBox="0 0 309.416 40.616098271675476" height="40.616098271675476" width="309.416"><g transform="matrix(1,0,0,1,0,0)"><svg width="309.416" viewBox="0.5 -41.75 351.01 46.95" height="40.616098271675476" data-palette-color="#000000"><path d="M13.5-1.35L4.5 0.05Q5.65-5.45 6.7-10.8L6.7-10.8Q7.15-13.05 7.6-15.5 8.05-17.95 8.47-20.33 8.9-22.7 9.22-24.93 9.55-27.15 9.8-29L9.8-29Q8.65-29.15 7.48-29.1 6.3-29.05 5.15-29.4L5.15-29.4Q5.2-30.2 5.2-31.25 5.2-32.3 5.25-33.35L5.25-33.35Q5.3-34.5 5.35-35.8L5.35-35.8Q6.65-35.7 7.95-35.65 9.25-35.6 10.55-35.6L10.55-35.6Q13.1-35.6 15.48-35.73 17.85-35.85 19.88-36.02 21.9-36.2 23.85-36.45L23.85-36.45 23.3-33.75Q23.05-32.6 22.83-31.4 22.6-30.2 22.4-29.35L22.4-29.35Q21.3-29.05 20.18-28.93 19.05-28.8 17.95-28.6L17.95-28.6Q17.6-26.9 17.2-24.83 16.8-22.75 16.43-20.53 16.05-18.3 15.7-16 15.35-13.7 15-11.6L15-11.6Q14.2-6.65 13.5-1.35L13.5-1.35ZM26.2-1.5L18.5 0.1Q19.9-6.9 21.2-13.55L21.2-13.55Q21.7-16.4 22.25-19.48 22.8-22.55 23.27-25.55 23.75-28.55 24.17-31.38 24.6-34.2 24.85-36.5L24.85-36.5Q26-36.45 26.97-36.38 27.95-36.3 28.9-36.25 29.85-36.2 30.82-36.18 31.8-36.15 32.95-36.15L32.95-36.15Q32.1-32.6 31.27-29.05 30.45-25.5 29.75-21.9L29.75-21.9 34.7-22.45Q35.4-26 35.95-29.33 36.5-32.65 37.4-36.2L37.4-36.2Q38.55-36.4 39.95-36.52 41.35-36.65 42.55-36.75 43.75-36.85 44.57-36.93 45.4-37 45.4-37L45.4-37Q44.7-34.75 44.07-32.08 43.45-29.4 42.85-26.53 42.25-23.65 41.7-20.7 41.15-17.75 40.7-15.1L40.7-15.1Q39.6-8.75 38.65-2.1L38.65-2.1 30.85-1.2Q31.5-4.2 32-7.05L32-7.05Q32.5-9.45 33.02-12.05 33.55-14.65 33.85-16.5L33.85-16.5 29-16.05Q28.65-14.15 28.17-11.65 27.7-9.15 27.3-6.9L27.3-6.9Q26.75-4.2 26.2-1.5L26.2-1.5ZM56.7-2.45L40.55 0.05 47.1-35.5 62.9-36.85Q62.55-35.75 62.3-34.6L62.3-34.6Q62.05-33.65 61.82-32.63 61.6-31.6 61.45-30.8L61.45-30.8Q60.95-30.75 60.02-30.73 59.09-30.7 58.05-30.68 57-30.65 55.92-30.65 54.85-30.65 54.05-30.65L54.05-30.65 52.3-21.7Q53.85-21.8 55.2-21.85L55.2-21.85Q56.3-21.9 57.45-21.9 58.59-21.9 59.15-21.95L59.15-21.95Q58.95-20.55 58.77-19.2 58.59-17.85 58.34-16.45L58.34-16.45Q57.84-16.4 56.72-16.38 55.6-16.35 54.45-16.3L54.45-16.3Q53.15-16.25 51.6-16.2L51.6-16.2 49.9-7 57.2-8.15 56.7-2.45ZM94.14-19.05Q93.79-13.95 92.14-10.18 90.49-6.4 88.17-3.85 85.84-1.3 83.17-0.05 80.49 1.2 78.09 1.2L78.09 1.2Q76.24 1.2 74.57 0.4 72.89-0.4 71.67-2.02 70.44-3.65 69.74-6.1 69.04-8.55 69.04-11.85L69.04-11.85Q69.04-18.3 70.89-23.1 72.74-27.9 75.57-31.1 78.39-34.3 81.62-35.85 84.84-37.4 87.64-37.4L87.64-37.4Q89.64-37.4 91.12-36.7 92.59-36 93.54-34.83 94.49-33.65 94.92-32.08 95.34-30.5 95.34-28.75L95.34-28.75 88.49-27.45Q88.04-29.45 87.29-30.3 86.54-31.15 85.59-31.15L85.59-31.15Q84.34-31.15 82.84-29.38 81.34-27.6 80.04-24.8 78.74-22 77.84-18.65 76.94-15.3 76.84-12.05L76.84-12.05Q76.84-8.95 77.77-7.63 78.69-6.3 80.14-6.3L80.14-6.3Q81.14-6.3 82.22-6.8 83.29-7.3 84.14-8.22 84.99-9.15 85.57-10.38 86.14-11.6 86.19-13.05L86.19-13.05 80.84-12.25 81.79-17.2Q84.14-17.5 86.39-17.8L86.39-17.8Q88.29-18.05 90.42-18.4 92.54-18.75 94.14-19.05L94.14-19.05ZM110.29-1Q109.04-0.8 107.54-0.55 106.04-0.3 104.84-0.1L104.84-0.1Q105.04-1.75 105.24-3.35L105.24-3.35Q105.39-4.75 105.51-6.15 105.64-7.55 105.74-8.55L105.74-8.55 101.39-8.55 99.39-1.35Q98.29-1.2 96.79-1.03 95.29-0.85 93.99-0.7L93.99-0.7Q92.39-0.5 90.84-0.3L90.84-0.3Q92.84-6.95 94.79-13.4L94.79-13.4Q95.59-16.1 96.46-19.05 97.34-22 98.21-24.93 99.09-27.85 99.89-30.55 100.69-33.25 101.29-35.5L101.29-35.5Q104.69-35.75 108.21-36.1 111.74-36.45 115.09-37.05L115.09-37.05Q114.94-35.45 114.76-33.08 114.59-30.7 114.44-27.9 114.29-25.1 114.14-22.05 113.99-19 113.84-16.05L113.84-16.05Q113.59-9.15 113.29-1.4L113.29-1.4Q111.79-1.15 110.29-1L110.29-1ZM105.69-26.1L102.59-13.55Q102.79-13.55 103.31-13.58 103.84-13.6 104.41-13.63 104.99-13.65 105.49-13.68 105.99-13.7 106.19-13.75L106.19-13.75Q106.19-14.05 106.26-14.78 106.34-15.5 106.41-16.43 106.49-17.35 106.59-18.45 106.69-19.55 106.79-20.6L106.79-20.6Q106.99-23.15 107.29-26.1L107.29-26.1 107.59-30.45 106.84-30.4 105.69-26.1ZM120.29-0.85L112.04-0.3Q114.24-6.95 116.24-13.35L116.24-13.35Q117.09-16.05 117.99-19 118.89-21.95 119.79-24.85 120.69-27.75 121.46-30.45 122.24-33.15 122.84-35.45L122.84-35.45Q125.59-35.45 128.04-35.75 130.49-36.05 133.34-36.3L133.34-36.3Q133.19-35.2 133.01-33.83 132.84-32.45 132.61-30.95 132.39-29.45 132.14-27.85 131.89-26.25 131.54-23.75 131.19-21.25 130.59-17.5L130.59-17.5 131.24-17.5Q132.69-21.3 133.64-23.83 134.59-26.35 135.19-27.95 135.79-29.55 136.41-31.08 137.04-32.6 137.61-33.98 138.19-35.35 138.69-36.4L138.69-36.4Q139.94-36.5 141.04-36.65 142.14-36.8 143.24-36.98 144.34-37.15 145.46-37.33 146.59-37.5 147.94-37.75L147.94-37.75Q147.44-34.85 146.99-31.8 146.54-28.75 146.19-25.73 145.84-22.7 145.51-19.75 145.19-16.8 144.94-14.15L144.94-14.15Q144.34-7.95 143.89-2.05L143.89-2.05 135.19-0.5Q135.19-0.75 135.26-1.85 135.34-2.95 135.46-4.55 135.59-6.15 135.81-8.1 136.04-10.05 136.26-12 136.49-13.95 136.74-15.78 136.99-17.6 137.24-18.9L137.24-18.9 136.79-18.9Q136.09-16.8 135.24-14.48 134.39-12.15 133.51-9.75 132.64-7.35 131.79-5.05 130.94-2.75 130.29-0.65L130.29-0.65Q128.54-0.6 127.29-0.53 126.04-0.45 124.39-0.35L124.39-0.35 125.99-18.9 125.24-18.9Q125.14-18.25 124.74-16.73 124.34-15.2 123.81-13.23 123.29-11.25 122.69-9.13 122.09-7 121.56-5.18 121.04-3.35 120.69-2.18 120.34-1 120.29-0.85L120.29-0.85ZM161.03-2.45L144.88 0.05 151.43-35.5 167.23-36.85Q166.88-35.75 166.63-34.6L166.63-34.6Q166.38-33.65 166.16-32.63 165.93-31.6 165.78-30.8L165.78-30.8Q165.28-30.75 164.36-30.73 163.43-30.7 162.38-30.68 161.33-30.65 160.26-30.65 159.18-30.65 158.38-30.65L158.38-30.65 156.63-21.7Q158.18-21.8 159.53-21.85L159.53-21.85Q160.63-21.9 161.78-21.9 162.93-21.9 163.48-21.95L163.48-21.95Q163.28-20.55 163.11-19.2 162.93-17.85 162.68-16.45L162.68-16.45Q162.18-16.4 161.06-16.38 159.93-16.35 158.78-16.3L158.78-16.3Q157.48-16.25 155.93-16.2L155.93-16.2 154.23-7 161.53-8.15 161.03-2.45ZM199.28-27.05Q199.28-22.95 198.4-19.33 197.53-15.7 196.08-12.68 194.63-9.65 192.7-7.28 190.78-4.9 188.68-3.23 186.58-1.55 184.43-0.68 182.28 0.2 180.33 0.2L180.33 0.2Q178.68 0.2 177.33-0.43 175.98-1.05 174.98-2.27 173.98-3.5 173.4-5.43 172.83-7.35 172.83-10.05L172.83-10.05Q172.83-12.85 173.53-15.95 174.23-19.05 175.43-22.1 176.63-25.15 178.38-27.9 180.13-30.65 182.23-32.77 184.33-34.9 186.73-36.15 189.13-37.4 191.73-37.4L191.73-37.4Q193.98-37.4 195.45-36.48 196.93-35.55 197.75-34.08 198.58-32.6 198.93-30.75 199.28-28.9 199.28-27.05L199.28-27.05ZM180.28-11.35Q180.28-10.8 180.48-10.2 180.68-9.6 181.03-9.15 181.38-8.7 181.9-8.38 182.43-8.05 183.03-8.05L183.03-8.05Q185.28-8.05 187.03-9.6 188.78-11.15 189.93-13.4 191.08-15.65 191.7-18.2 192.33-20.75 192.33-22.85L192.33-22.85Q192.33-23.45 192.25-24.15 192.18-24.85 191.95-25.45 191.73-26.05 191.25-26.48 190.78-26.9 189.98-26.9L189.98-26.9Q188.38-26.9 187.03-26.1 185.68-25.3 184.6-23.98 183.53-22.65 182.73-20.98 181.93-19.3 181.35-17.57 180.78-15.85 180.53-14.2 180.28-12.55 180.28-11.35L180.28-11.35ZM202.08-1.2Q200.68-0.95 199.03-0.6 197.38-0.25 196.13 0.05L196.13 0.05Q196.73-2.1 197.3-4.78 197.88-7.45 198.45-10.4 199.03-13.35 199.55-16.38 200.08-19.4 200.58-22.2L200.58-22.2Q201.63-28.85 202.68-35.95L202.68-35.95 219.43-36.8 217.98-30.65 210.13-30.65 208.58-21.75Q210.13-21.8 211.53-21.8L211.53-21.8Q212.68-21.8 213.88-21.8 215.08-21.8 215.73-21.85L215.73-21.85Q215.58-20.45 215.35-19.1 215.13-17.75 214.93-16.4L214.93-16.4Q214.28-16.4 213.08-16.43 211.88-16.45 210.6-16.5 209.33-16.55 207.73-16.6L207.73-16.6 205.43-1.85Q203.73-1.55 202.08-1.2L202.08-1.2ZM235.17-1.65L224.77 0.2 228.57-35.3Q230.92-35.4 233-35.77 235.07-36.15 237.12-36.3L237.12-36.3Q237.12-36.25 236.97-35.27 236.82-34.3 236.57-32.73 236.32-31.15 236.02-29.18 235.72-27.2 235.15-23.75 234.57-20.3 233.62-14.2L233.62-14.2 234.37-14.2Q235.67-18.8 236.52-21.73 237.37-24.65 237.9-26.48 238.42-28.3 238.9-30 239.37-31.7 239.8-33.15 240.22-34.6 240.47-35.6L240.47-35.6 240.92-35.6Q241.82-35.6 242.75-35.7 243.67-35.8 244.5-35.93 245.32-36.05 246.22-36.25L246.22-36.25Q246.12-35.8 246-34.4 245.87-33 245.67-31.03 245.47-29.05 245.27-26.68 245.07-24.3 244.87-22.03 244.67-19.75 244.5-17.7 244.32-15.65 244.17-14.2L244.17-14.2 245.07-14.2 249.82-35.7Q251.52-35.95 253.17-36.15L253.17-36.15Q254.62-36.35 256.17-36.55 257.72-36.75 258.92-37L258.92-37Q258.17-34.9 257.42-32.33 256.67-29.75 255.87-26.9 255.07-24.05 254.35-21.15 253.62-18.25 252.92-15.55L252.92-15.55Q251.32-9.15 249.82-2.4L249.82-2.4 238.52-0.5 240.72-19.8 240.12-19.8 235.17-1.65ZM280.77-27.05Q280.77-22.95 279.89-19.33 279.02-15.7 277.57-12.68 276.12-9.65 274.19-7.28 272.27-4.9 270.17-3.23 268.07-1.55 265.92-0.68 263.77 0.2 261.82 0.2L261.82 0.2Q260.17 0.2 258.82-0.43 257.47-1.05 256.47-2.27 255.47-3.5 254.89-5.43 254.32-7.35 254.32-10.05L254.32-10.05Q254.32-12.85 255.02-15.95 255.72-19.05 256.92-22.1 258.12-25.15 259.87-27.9 261.62-30.65 263.72-32.77 265.82-34.9 268.22-36.15 270.62-37.4 273.22-37.4L273.22-37.4Q275.47-37.4 276.94-36.48 278.42-35.55 279.24-34.08 280.07-32.6 280.42-30.75 280.77-28.9 280.77-27.05L280.77-27.05ZM261.77-11.35Q261.77-10.8 261.97-10.2 262.17-9.6 262.52-9.15 262.87-8.7 263.39-8.38 263.92-8.05 264.52-8.05L264.52-8.05Q266.77-8.05 268.52-9.6 270.27-11.15 271.42-13.4 272.57-15.65 273.19-18.2 273.82-20.75 273.82-22.85L273.82-22.85Q273.82-23.45 273.74-24.15 273.67-24.85 273.44-25.45 273.22-26.05 272.74-26.48 272.27-26.9 271.47-26.9L271.47-26.9Q269.87-26.9 268.52-26.1 267.17-25.3 266.09-23.98 265.02-22.65 264.22-20.98 263.42-19.3 262.84-17.57 262.27-15.85 262.02-14.2 261.77-12.55 261.77-11.35L261.77-11.35ZM285.72-2.05L277.62 0.05Q278.97-6.6 280.22-12.95L280.22-12.95Q280.67-15.65 281.22-18.57 281.77-21.5 282.24-24.38 282.72-27.25 283.14-29.93 283.57-32.6 283.82-34.8L283.82-34.8Q286.67-35.7 289.97-36.13 293.27-36.55 296.52-36.55L296.52-36.55Q298.47-36.55 299.74-36.1 301.02-35.65 301.74-34.83 302.47-34 302.77-32.9 303.07-31.8 303.07-30.45L303.07-30.45Q303.07-28.45 302.37-26.53 301.67-24.6 300.49-22.88 299.32-21.15 297.79-19.73 296.27-18.3 294.52-17.4L294.52-17.4Q295.42-15.4 296.44-13.03 297.47-10.65 298.37-8.5L298.37-8.5Q299.37-6 300.42-3.5L300.42-3.5 292.67-0.8Q291.67-4 290.87-6.8L290.87-6.8Q290.52-7.95 290.17-9.18 289.82-10.4 289.52-11.5 289.22-12.6 289.02-13.48 288.82-14.35 288.77-14.9L288.77-14.9 288.12-14.7Q287.82-13.1 287.39-10.95 286.97-8.8 286.62-6.8L286.62-6.8Q286.17-4.45 285.72-2.05L285.72-2.05ZM290.97-29.6L289.37-21.65Q290.32-21.75 291.69-22.45 293.07-23.15 294.32-24.13 295.57-25.1 296.47-26.15 297.37-27.2 297.37-28L297.37-28Q297.37-28.55 297.02-28.88 296.67-29.2 296.04-29.38 295.42-29.55 294.67-29.6 293.92-29.65 293.12-29.65L293.12-29.65Q292.57-29.65 291.99-29.63 291.42-29.6 290.97-29.6L290.97-29.6ZM325.06-25.55Q325.06-22.95 324.31-20.03 323.56-17.1 322.21-14.23 320.86-11.35 318.89-8.72 316.91-6.1 314.41-4.13 311.91-2.15 308.94-0.95 305.96 0.25 302.61 0.25L302.61 0.25Q301.91 0.25 301.21 0.18 300.51 0.1 299.81 0L299.81 0Q301.16-6.9 302.46-13.45L302.46-13.45Q302.96-16.2 303.51-19.18 304.06-22.15 304.56-25.05 305.06-27.95 305.54-30.6 306.01-33.25 306.31-35.4L306.31-35.4Q308.46-35.8 310.66-36.15 312.86-36.5 315.16-36.5L315.16-36.5Q317.86-36.5 319.74-35.65 321.61-34.8 322.79-33.3 323.96-31.8 324.51-29.8 325.06-27.8 325.06-25.55L325.06-25.55ZM313.26-29.45Q312.71-26.5 312.11-23.8 311.51-21.1 310.91-18.35 310.31-15.6 309.71-12.6 309.11-9.6 308.56-6.05L308.56-6.05Q309.76-6.85 310.89-8.22 312.01-9.6 313.01-11.4 314.01-13.2 314.84-15.2 315.66-17.2 316.26-19.1 316.86-21 317.19-22.65 317.51-24.3 317.51-25.5L317.51-25.5Q317.51-27.35 316.49-28.4 315.46-29.45 313.26-29.45L313.26-29.45ZM343.81-12.35Q343.81-9.55 342.74-7.28 341.66-5 339.84-3.35 338.01-1.7 335.54-0.8 333.06 0.1 330.21 0.1L330.21 0.1Q328.21 0.1 326.21-0.98 324.21-2.05 322.36-4.4L322.36-4.4 326.06-11.65Q326.41-11 327.11-10.33 327.81-9.65 328.69-9.15 329.56-8.65 330.44-8.33 331.31-8 332.01-8L332.01-8Q332.61-8 333.26-8.2 333.91-8.4 334.46-8.8 335.01-9.2 335.34-9.73 335.66-10.25 335.66-10.95L335.66-10.95Q335.66-12.15 334.89-13.18 334.11-14.2 332.96-15.13 331.81-16.05 330.46-17 329.11-17.95 327.99-19 326.86-20.05 326.06-21.35 325.26-22.65 325.26-24.25L325.26-24.25Q325.26-26.85 326.81-29.1 328.36-31.35 330.69-32.98 333.01-34.6 335.76-35.55 338.51-36.5 340.96-36.5L340.96-36.5Q342.31-36.5 343.51-36.18 344.71-35.85 345.59-35.13 346.46-34.4 346.99-33.3 347.51-32.2 347.51-30.55L347.51-30.55Q347.51-29.85 347.39-29.15 347.26-28.45 347.16-27.65L347.16-27.65 339.91-25.55Q340.01-25.95 340.09-26.35 340.16-26.75 340.16-27.15L340.16-27.15Q340.16-28.65 339.64-29.33 339.11-30 338.26-30L338.26-30Q337.86-30 337.29-29.7 336.71-29.4 336.14-28.93 335.56-28.45 335.16-27.8 334.76-27.15 334.76-26.4L334.76-26.4Q334.76-25.2 335.44-24.4 336.11-23.6 337.11-22.9 338.11-22.2 339.29-21.48 340.46-20.75 341.46-19.6 342.46-18.45 343.14-16.73 343.81-15 343.81-12.35L343.81-12.35Z" opacity="1" transform="matrix(1,0,0,1,0,0)" fill="black" class="slogan-text-1" id="SvgjsPath1132" stroke-width="7" stroke="black" stroke-linejoin="round"></path></svg></g></svg></g></svg></g></svg></g><g></g></svg></g></svg></g></svg></g></mask><g transform="matrix(1,0,0,1,39.55199999999999,46.24737079278515)"><svg viewBox="0 0 316.416 154.7052584144297" height="154.7052584144297" width="316.416"><g><svg viewBox="0 0 316.416 154.7052584144297" height="154.7052584144297" width="316.416"><g><svg viewBox="0 0 316.416 154.7052584144297" height="154.7052584144297" width="316.416"><g><svg viewBox="0 0 316.416 154.7052584144297" height="154.7052584144297" width="316.416"><g id="textblocktransform"><svg viewBox="0 0 316.416 154.7052584144297" height="154.7052584144297" width="316.416" id="textblock"><g><svg viewBox="0 0 316.416 95.52864732824428" height="95.52864732824428" width="316.416"><g transform="matrix(1,0,0,1,0,0)"><svg width="316.416" viewBox="-3.75 -36.05 131.99 40.55" height="95.52864732824428" data-palette-color="#61777f"><path d="M21.25-23.95L28.65-23.95 25.6 0 16.45 0 14.5-10.1 14.15-10.1 12.25 0 3.3 0 0.25-23.95 7.95-23.95 9-11.85 9.4-11.85 11.1-23.95 18.05-23.95 19.7-11.85 20.15-11.85 21.25-23.95ZM30-12.08Q30-18.65 32.52-21.6 35.05-24.55 40.42-24.55 45.8-24.55 48.25-21.65 50.7-18.75 50.7-12.13 50.7-5.5 48.3-2.5 45.9 0.5 40.45 0.5 35 0.5 32.5-2.5 30-5.5 30-12.08ZM42.02-16.8Q41.7-17.8 40.4-17.8 39.1-17.8 38.75-16.8 38.4-15.8 38.4-12.6L38.4-12.6 38.4-11.4Q38.4-7.85 38.75-6.8 39.1-5.75 40.37-5.75 41.65-5.75 42-6.8 42.35-7.85 42.35-11.1L42.35-11.1 42.35-12.55Q42.35-15.8 42.02-16.8ZM61.59-13.45L61.59-13.45 61.59 0 53.3 0 53.3-23.95 60.59-23.95 61.09-22.5 61.3-22.5Q62.45-23.8 63.62-24.18 64.8-24.55 67.45-24.55L67.45-24.55 67.09-16.55 64.8-16.55Q62.84-16.55 62.22-15.95 61.59-15.35 61.59-13.45ZM90.89-5.75L90.14 0.3 86.79 0.5Q82.94 0.5 82.09-2.05L82.09-2.05 81.84-2.05Q80.19 0.5 76.79 0.5L76.79 0.5Q72.29 0.5 70.47-2.65 68.64-5.8 68.64-12.03 68.64-18.25 70.69-21.4 72.74-24.55 76.59-24.55L76.59-24.55Q79.24-24.55 80.69-23.3L80.69-23.3 80.69-32.05 89.04-32.05 89.04-7.35Q89.04-6.4 89.44-6.08 89.84-5.75 90.89-5.75L90.89-5.75ZM78.82-17.5Q77.74-17.5 77.39-16.23 77.04-14.95 77.04-12.58 77.04-10.2 77.09-9.35 77.14-8.5 77.32-7.63 77.49-6.75 77.87-6.43 78.24-6.1 79.12-6.1 79.99-6.1 80.94-6.55L80.94-6.55 80.94-16.9Q79.89-17.5 78.82-17.5ZM92.79-5.5L92.79-5.5 92.79-32.05 101.04-32.05 101.04-8.15Q101.04-7.3 101.42-6.95 101.79-6.6 102.74-6.6L102.74-6.6 102.09 0.5 99.34 0.5Q96.04 0.5 94.42-0.88 92.79-2.25 92.79-5.5ZM114.44-17.4L114.44-17.4Q113.14-17.4 112.74-16.53 112.34-15.65 112.34-13.85L112.34-13.85 116.69-13.85 116.69-15.05Q116.69-17.4 114.44-17.4ZM114.64-24.55L114.64-24.55Q119.79-24.55 122.01-22.08 124.24-19.6 124.24-15L124.24-15Q124.24-14.4 123.89-9.6L123.89-9.6 112.49-9.6Q112.49-5.85 115.94-5.85L115.94-5.85Q117.59-5.85 122.39-7L122.39-7 123.09-0.8Q118.89 0.5 114.69 0.5L114.69 0.5Q109.54 0.5 106.79-2.88 104.04-6.25 104.04-12.05L104.04-12.05Q104.04-24.55 114.64-24.55Z" opacity="1" transform="matrix(1,0,0,1,0,0)" fill="#ffffff" class="wordmark-text-0" data-fill-palette-color="primary" id="text-0"></path></svg></g></svg></g><g transform="matrix(1,0,0,1,3.5,114.0891601427542)"><svg viewBox="0 0 309.416 40.616098271675476" height="40.616098271675476" width="309.416"><g transform="matrix(1,0,0,1,0,0)"><svg width="309.416" viewBox="0.5 -41.75 351.01 46.95" height="40.616098271675476" data-palette-color="#000000"><path d="M13.5-1.35L4.5 0.05Q5.65-5.45 6.7-10.8L6.7-10.8Q7.15-13.05 7.6-15.5 8.05-17.95 8.47-20.33 8.9-22.7 9.22-24.93 9.55-27.15 9.8-29L9.8-29Q8.65-29.15 7.48-29.1 6.3-29.05 5.15-29.4L5.15-29.4Q5.2-30.2 5.2-31.25 5.2-32.3 5.25-33.35L5.25-33.35Q5.3-34.5 5.35-35.8L5.35-35.8Q6.65-35.7 7.95-35.65 9.25-35.6 10.55-35.6L10.55-35.6Q13.1-35.6 15.48-35.73 17.85-35.85 19.88-36.02 21.9-36.2 23.85-36.45L23.85-36.45 23.3-33.75Q23.05-32.6 22.83-31.4 22.6-30.2 22.4-29.35L22.4-29.35Q21.3-29.05 20.18-28.93 19.05-28.8 17.95-28.6L17.95-28.6Q17.6-26.9 17.2-24.83 16.8-22.75 16.43-20.53 16.05-18.3 15.7-16 15.35-13.7 15-11.6L15-11.6Q14.2-6.65 13.5-1.35L13.5-1.35ZM26.2-1.5L18.5 0.1Q19.9-6.9 21.2-13.55L21.2-13.55Q21.7-16.4 22.25-19.48 22.8-22.55 23.27-25.55 23.75-28.55 24.17-31.38 24.6-34.2 24.85-36.5L24.85-36.5Q26-36.45 26.97-36.38 27.95-36.3 28.9-36.25 29.85-36.2 30.82-36.18 31.8-36.15 32.95-36.15L32.95-36.15Q32.1-32.6 31.27-29.05 30.45-25.5 29.75-21.9L29.75-21.9 34.7-22.45Q35.4-26 35.95-29.33 36.5-32.65 37.4-36.2L37.4-36.2Q38.55-36.4 39.95-36.52 41.35-36.65 42.55-36.75 43.75-36.85 44.57-36.93 45.4-37 45.4-37L45.4-37Q44.7-34.75 44.07-32.08 43.45-29.4 42.85-26.53 42.25-23.65 41.7-20.7 41.15-17.75 40.7-15.1L40.7-15.1Q39.6-8.75 38.65-2.1L38.65-2.1 30.85-1.2Q31.5-4.2 32-7.05L32-7.05Q32.5-9.45 33.02-12.05 33.55-14.65 33.85-16.5L33.85-16.5 29-16.05Q28.65-14.15 28.17-11.65 27.7-9.15 27.3-6.9L27.3-6.9Q26.75-4.2 26.2-1.5L26.2-1.5ZM56.7-2.45L40.55 0.05 47.1-35.5 62.9-36.85Q62.55-35.75 62.3-34.6L62.3-34.6Q62.05-33.65 61.82-32.63 61.6-31.6 61.45-30.8L61.45-30.8Q60.95-30.75 60.02-30.73 59.09-30.7 58.05-30.68 57-30.65 55.92-30.65 54.85-30.65 54.05-30.65L54.05-30.65 52.3-21.7Q53.85-21.8 55.2-21.85L55.2-21.85Q56.3-21.9 57.45-21.9 58.59-21.9 59.15-21.95L59.15-21.95Q58.95-20.55 58.77-19.2 58.59-17.85 58.34-16.45L58.34-16.45Q57.84-16.4 56.72-16.38 55.6-16.35 54.45-16.3L54.45-16.3Q53.15-16.25 51.6-16.2L51.6-16.2 49.9-7 57.2-8.15 56.7-2.45ZM94.14-19.05Q93.79-13.95 92.14-10.18 90.49-6.4 88.17-3.85 85.84-1.3 83.17-0.05 80.49 1.2 78.09 1.2L78.09 1.2Q76.24 1.2 74.57 0.4 72.89-0.4 71.67-2.02 70.44-3.65 69.74-6.1 69.04-8.55 69.04-11.85L69.04-11.85Q69.04-18.3 70.89-23.1 72.74-27.9 75.57-31.1 78.39-34.3 81.62-35.85 84.84-37.4 87.64-37.4L87.64-37.4Q89.64-37.4 91.12-36.7 92.59-36 93.54-34.83 94.49-33.65 94.92-32.08 95.34-30.5 95.34-28.75L95.34-28.75 88.49-27.45Q88.04-29.45 87.29-30.3 86.54-31.15 85.59-31.15L85.59-31.15Q84.34-31.15 82.84-29.38 81.34-27.6 80.04-24.8 78.74-22 77.84-18.65 76.94-15.3 76.84-12.05L76.84-12.05Q76.84-8.95 77.77-7.63 78.69-6.3 80.14-6.3L80.14-6.3Q81.14-6.3 82.22-6.8 83.29-7.3 84.14-8.22 84.99-9.15 85.57-10.38 86.14-11.6 86.19-13.05L86.19-13.05 80.84-12.25 81.79-17.2Q84.14-17.5 86.39-17.8L86.39-17.8Q88.29-18.05 90.42-18.4 92.54-18.75 94.14-19.05L94.14-19.05ZM110.29-1Q109.04-0.8 107.54-0.55 106.04-0.3 104.84-0.1L104.84-0.1Q105.04-1.75 105.24-3.35L105.24-3.35Q105.39-4.75 105.51-6.15 105.64-7.55 105.74-8.55L105.74-8.55 101.39-8.55 99.39-1.35Q98.29-1.2 96.79-1.03 95.29-0.85 93.99-0.7L93.99-0.7Q92.39-0.5 90.84-0.3L90.84-0.3Q92.84-6.95 94.79-13.4L94.79-13.4Q95.59-16.1 96.46-19.05 97.34-22 98.21-24.93 99.09-27.85 99.89-30.55 100.69-33.25 101.29-35.5L101.29-35.5Q104.69-35.75 108.21-36.1 111.74-36.45 115.09-37.05L115.09-37.05Q114.94-35.45 114.76-33.08 114.59-30.7 114.44-27.9 114.29-25.1 114.14-22.05 113.99-19 113.84-16.05L113.84-16.05Q113.59-9.15 113.29-1.4L113.29-1.4Q111.79-1.15 110.29-1L110.29-1ZM105.69-26.1L102.59-13.55Q102.79-13.55 103.31-13.58 103.84-13.6 104.41-13.63 104.99-13.65 105.49-13.68 105.99-13.7 106.19-13.75L106.19-13.75Q106.19-14.05 106.26-14.78 106.34-15.5 106.41-16.43 106.49-17.35 106.59-18.45 106.69-19.55 106.79-20.6L106.79-20.6Q106.99-23.15 107.29-26.1L107.29-26.1 107.59-30.45 106.84-30.4 105.69-26.1ZM120.29-0.85L112.04-0.3Q114.24-6.95 116.24-13.35L116.24-13.35Q117.09-16.05 117.99-19 118.89-21.95 119.79-24.85 120.69-27.75 121.46-30.45 122.24-33.15 122.84-35.45L122.84-35.45Q125.59-35.45 128.04-35.75 130.49-36.05 133.34-36.3L133.34-36.3Q133.19-35.2 133.01-33.83 132.84-32.45 132.61-30.95 132.39-29.45 132.14-27.85 131.89-26.25 131.54-23.75 131.19-21.25 130.59-17.5L130.59-17.5 131.24-17.5Q132.69-21.3 133.64-23.83 134.59-26.35 135.19-27.95 135.79-29.55 136.41-31.08 137.04-32.6 137.61-33.98 138.19-35.35 138.69-36.4L138.69-36.4Q139.94-36.5 141.04-36.65 142.14-36.8 143.24-36.98 144.34-37.15 145.46-37.33 146.59-37.5 147.94-37.75L147.94-37.75Q147.44-34.85 146.99-31.8 146.54-28.75 146.19-25.73 145.84-22.7 145.51-19.75 145.19-16.8 144.94-14.15L144.94-14.15Q144.34-7.95 143.89-2.05L143.89-2.05 135.19-0.5Q135.19-0.75 135.26-1.85 135.34-2.95 135.46-4.55 135.59-6.15 135.81-8.1 136.04-10.05 136.26-12 136.49-13.95 136.74-15.78 136.99-17.6 137.24-18.9L137.24-18.9 136.79-18.9Q136.09-16.8 135.24-14.48 134.39-12.15 133.51-9.75 132.64-7.35 131.79-5.05 130.94-2.75 130.29-0.65L130.29-0.65Q128.54-0.6 127.29-0.53 126.04-0.45 124.39-0.35L124.39-0.35 125.99-18.9 125.24-18.9Q125.14-18.25 124.74-16.73 124.34-15.2 123.81-13.23 123.29-11.25 122.69-9.13 122.09-7 121.56-5.18 121.04-3.35 120.69-2.18 120.34-1 120.29-0.85L120.29-0.85ZM161.03-2.45L144.88 0.05 151.43-35.5 167.23-36.85Q166.88-35.75 166.63-34.6L166.63-34.6Q166.38-33.65 166.16-32.63 165.93-31.6 165.78-30.8L165.78-30.8Q165.28-30.75 164.36-30.73 163.43-30.7 162.38-30.68 161.33-30.65 160.26-30.65 159.18-30.65 158.38-30.65L158.38-30.65 156.63-21.7Q158.18-21.8 159.53-21.85L159.53-21.85Q160.63-21.9 161.78-21.9 162.93-21.9 163.48-21.95L163.48-21.95Q163.28-20.55 163.11-19.2 162.93-17.85 162.68-16.45L162.68-16.45Q162.18-16.4 161.06-16.38 159.93-16.35 158.78-16.3L158.78-16.3Q157.48-16.25 155.93-16.2L155.93-16.2 154.23-7 161.53-8.15 161.03-2.45ZM199.28-27.05Q199.28-22.95 198.4-19.33 197.53-15.7 196.08-12.68 194.63-9.65 192.7-7.28 190.78-4.9 188.68-3.23 186.58-1.55 184.43-0.68 182.28 0.2 180.33 0.2L180.33 0.2Q178.68 0.2 177.33-0.43 175.98-1.05 174.98-2.27 173.98-3.5 173.4-5.43 172.83-7.35 172.83-10.05L172.83-10.05Q172.83-12.85 173.53-15.95 174.23-19.05 175.43-22.1 176.63-25.15 178.38-27.9 180.13-30.65 182.23-32.77 184.33-34.9 186.73-36.15 189.13-37.4 191.73-37.4L191.73-37.4Q193.98-37.4 195.45-36.48 196.93-35.55 197.75-34.08 198.58-32.6 198.93-30.75 199.28-28.9 199.28-27.05L199.28-27.05ZM180.28-11.35Q180.28-10.8 180.48-10.2 180.68-9.6 181.03-9.15 181.38-8.7 181.9-8.38 182.43-8.05 183.03-8.05L183.03-8.05Q185.28-8.05 187.03-9.6 188.78-11.15 189.93-13.4 191.08-15.65 191.7-18.2 192.33-20.75 192.33-22.85L192.33-22.85Q192.33-23.45 192.25-24.15 192.18-24.85 191.95-25.45 191.73-26.05 191.25-26.48 190.78-26.9 189.98-26.9L189.98-26.9Q188.38-26.9 187.03-26.1 185.68-25.3 184.6-23.98 183.53-22.65 182.73-20.98 181.93-19.3 181.35-17.57 180.78-15.85 180.53-14.2 180.28-12.55 180.28-11.35L180.28-11.35ZM202.08-1.2Q200.68-0.95 199.03-0.6 197.38-0.25 196.13 0.05L196.13 0.05Q196.73-2.1 197.3-4.78 197.88-7.45 198.45-10.4 199.03-13.35 199.55-16.38 200.08-19.4 200.58-22.2L200.58-22.2Q201.63-28.85 202.68-35.95L202.68-35.95 219.43-36.8 217.98-30.65 210.13-30.65 208.58-21.75Q210.13-21.8 211.53-21.8L211.53-21.8Q212.68-21.8 213.88-21.8 215.08-21.8 215.73-21.85L215.73-21.85Q215.58-20.45 215.35-19.1 215.13-17.75 214.93-16.4L214.93-16.4Q214.28-16.4 213.08-16.43 211.88-16.45 210.6-16.5 209.33-16.55 207.73-16.6L207.73-16.6 205.43-1.85Q203.73-1.55 202.08-1.2L202.08-1.2ZM235.17-1.65L224.77 0.2 228.57-35.3Q230.92-35.4 233-35.77 235.07-36.15 237.12-36.3L237.12-36.3Q237.12-36.25 236.97-35.27 236.82-34.3 236.57-32.73 236.32-31.15 236.02-29.18 235.72-27.2 235.15-23.75 234.57-20.3 233.62-14.2L233.62-14.2 234.37-14.2Q235.67-18.8 236.52-21.73 237.37-24.65 237.9-26.48 238.42-28.3 238.9-30 239.37-31.7 239.8-33.15 240.22-34.6 240.47-35.6L240.47-35.6 240.92-35.6Q241.82-35.6 242.75-35.7 243.67-35.8 244.5-35.93 245.32-36.05 246.22-36.25L246.22-36.25Q246.12-35.8 246-34.4 245.87-33 245.67-31.03 245.47-29.05 245.27-26.68 245.07-24.3 244.87-22.03 244.67-19.75 244.5-17.7 244.32-15.65 244.17-14.2L244.17-14.2 245.07-14.2 249.82-35.7Q251.52-35.95 253.17-36.15L253.17-36.15Q254.62-36.35 256.17-36.55 257.72-36.75 258.92-37L258.92-37Q258.17-34.9 257.42-32.33 256.67-29.75 255.87-26.9 255.07-24.05 254.35-21.15 253.62-18.25 252.92-15.55L252.92-15.55Q251.32-9.15 249.82-2.4L249.82-2.4 238.52-0.5 240.72-19.8 240.12-19.8 235.17-1.65ZM280.77-27.05Q280.77-22.95 279.89-19.33 279.02-15.7 277.57-12.68 276.12-9.65 274.19-7.28 272.27-4.9 270.17-3.23 268.07-1.55 265.92-0.68 263.77 0.2 261.82 0.2L261.82 0.2Q260.17 0.2 258.82-0.43 257.47-1.05 256.47-2.27 255.47-3.5 254.89-5.43 254.32-7.35 254.32-10.05L254.32-10.05Q254.32-12.85 255.02-15.95 255.72-19.05 256.92-22.1 258.12-25.15 259.87-27.9 261.62-30.65 263.72-32.77 265.82-34.9 268.22-36.15 270.62-37.4 273.22-37.4L273.22-37.4Q275.47-37.4 276.94-36.48 278.42-35.55 279.24-34.08 280.07-32.6 280.42-30.75 280.77-28.9 280.77-27.05L280.77-27.05ZM261.77-11.35Q261.77-10.8 261.97-10.2 262.17-9.6 262.52-9.15 262.87-8.7 263.39-8.38 263.92-8.05 264.52-8.05L264.52-8.05Q266.77-8.05 268.52-9.6 270.27-11.15 271.42-13.4 272.57-15.65 273.19-18.2 273.82-20.75 273.82-22.85L273.82-22.85Q273.82-23.45 273.74-24.15 273.67-24.85 273.44-25.45 273.22-26.05 272.74-26.48 272.27-26.9 271.47-26.9L271.47-26.9Q269.87-26.9 268.52-26.1 267.17-25.3 266.09-23.98 265.02-22.65 264.22-20.98 263.42-19.3 262.84-17.57 262.27-15.85 262.02-14.2 261.77-12.55 261.77-11.35L261.77-11.35ZM285.72-2.05L277.62 0.05Q278.97-6.6 280.22-12.95L280.22-12.95Q280.67-15.65 281.22-18.57 281.77-21.5 282.24-24.38 282.72-27.25 283.14-29.93 283.57-32.6 283.82-34.8L283.82-34.8Q286.67-35.7 289.97-36.13 293.27-36.55 296.52-36.55L296.52-36.55Q298.47-36.55 299.74-36.1 301.02-35.65 301.74-34.83 302.47-34 302.77-32.9 303.07-31.8 303.07-30.45L303.07-30.45Q303.07-28.45 302.37-26.53 301.67-24.6 300.49-22.88 299.32-21.15 297.79-19.73 296.27-18.3 294.52-17.4L294.52-17.4Q295.42-15.4 296.44-13.03 297.47-10.65 298.37-8.5L298.37-8.5Q299.37-6 300.42-3.5L300.42-3.5 292.67-0.8Q291.67-4 290.87-6.8L290.87-6.8Q290.52-7.95 290.17-9.18 289.82-10.4 289.52-11.5 289.22-12.6 289.02-13.48 288.82-14.35 288.77-14.9L288.77-14.9 288.12-14.7Q287.82-13.1 287.39-10.95 286.97-8.8 286.62-6.8L286.62-6.8Q286.17-4.45 285.72-2.05L285.72-2.05ZM290.97-29.6L289.37-21.65Q290.32-21.75 291.69-22.45 293.07-23.15 294.32-24.13 295.57-25.1 296.47-26.15 297.37-27.2 297.37-28L297.37-28Q297.37-28.55 297.02-28.88 296.67-29.2 296.04-29.38 295.42-29.55 294.67-29.6 293.92-29.65 293.12-29.65L293.12-29.65Q292.57-29.65 291.99-29.63 291.42-29.6 290.97-29.6L290.97-29.6ZM325.06-25.55Q325.06-22.95 324.31-20.03 323.56-17.1 322.21-14.23 320.86-11.35 318.89-8.72 316.91-6.1 314.41-4.13 311.91-2.15 308.94-0.95 305.96 0.25 302.61 0.25L302.61 0.25Q301.91 0.25 301.21 0.18 300.51 0.1 299.81 0L299.81 0Q301.16-6.9 302.46-13.45L302.46-13.45Q302.96-16.2 303.51-19.18 304.06-22.15 304.56-25.05 305.06-27.95 305.54-30.6 306.01-33.25 306.31-35.4L306.31-35.4Q308.46-35.8 310.66-36.15 312.86-36.5 315.16-36.5L315.16-36.5Q317.86-36.5 319.74-35.65 321.61-34.8 322.79-33.3 323.96-31.8 324.51-29.8 325.06-27.8 325.06-25.55L325.06-25.55ZM313.26-29.45Q312.71-26.5 312.11-23.8 311.51-21.1 310.91-18.35 310.31-15.6 309.71-12.6 309.11-9.6 308.56-6.05L308.56-6.05Q309.76-6.85 310.89-8.22 312.01-9.6 313.01-11.4 314.01-13.2 314.84-15.2 315.66-17.2 316.26-19.1 316.86-21 317.19-22.65 317.51-24.3 317.51-25.5L317.51-25.5Q317.51-27.35 316.49-28.4 315.46-29.45 313.26-29.45L313.26-29.45ZM343.81-12.35Q343.81-9.55 342.74-7.28 341.66-5 339.84-3.35 338.01-1.7 335.54-0.8 333.06 0.1 330.21 0.1L330.21 0.1Q328.21 0.1 326.21-0.98 324.21-2.05 322.36-4.4L322.36-4.4 326.06-11.65Q326.41-11 327.11-10.33 327.81-9.65 328.69-9.15 329.56-8.65 330.44-8.33 331.31-8 332.01-8L332.01-8Q332.61-8 333.26-8.2 333.91-8.4 334.46-8.8 335.01-9.2 335.34-9.73 335.66-10.25 335.66-10.95L335.66-10.95Q335.66-12.15 334.89-13.18 334.11-14.2 332.96-15.13 331.81-16.05 330.46-17 329.11-17.95 327.99-19 326.86-20.05 326.06-21.35 325.26-22.65 325.26-24.25L325.26-24.25Q325.26-26.85 326.81-29.1 328.36-31.35 330.69-32.98 333.01-34.6 335.76-35.55 338.51-36.5 340.96-36.5L340.96-36.5Q342.31-36.5 343.51-36.18 344.71-35.85 345.59-35.13 346.46-34.4 346.99-33.3 347.51-32.2 347.51-30.55L347.51-30.55Q347.51-29.85 347.39-29.15 347.26-28.45 347.16-27.65L347.16-27.65 339.91-25.55Q340.01-25.95 340.09-26.35 340.16-26.75 340.16-27.15L340.16-27.15Q340.16-28.65 339.64-29.33 339.11-30 338.26-30L338.26-30Q337.86-30 337.29-29.7 336.71-29.4 336.14-28.93 335.56-28.45 335.16-27.8 334.76-27.15 334.76-26.4L334.76-26.4Q334.76-25.2 335.44-24.4 336.11-23.6 337.11-22.9 338.11-22.2 339.29-21.48 340.46-20.75 341.46-19.6 342.46-18.45 343.14-16.73 343.81-15 343.81-12.35L343.81-12.35Z" opacity="1" transform="matrix(1,0,0,1,0,0)" fill="#ffffff" class="slogan-text-1" data-fill-palette-color="secondary" id="text-1"></path></svg></g></svg></g></svg></g></svg></g><g></g></svg></g></svg></g></svg></g><g mask="url(#18349a21-69f6-4df6-a5e1-01aaf15e5928)"><g transform="matrix(4.5407407407407385, 0, 0, 4.5407407407407385, 44.916551167856824, 1)"><svg xmlns="http://www.w3.org/2000/svg" xmlns:xlink="http://www.w3.org/1999/xlink" version="1.1" x="0" y="0" viewBox="16.37906821422729 21.699999999999996 67.32093178577271 54.00000000000002" enable-background="new 0 0 100 100" xml:space="preserve" height="54.00000000000002" width="67.32093178577271" class="icon-none" data-fill-palette-color="accent" id="none"><path fill="#ffffff" d="M63.2 47.1c0.8 0 1.5-0.5 1.8-1.2 0.4-1 0-2.2-1-2.6-13.8-6-42.4-5.1-43.7-5-1.1 0-2 1-1.9 2.1 0 1.1 0.9 2 2.1 1.9 0.1 0 6.5-0.2 14.6 0.2v16.2c0 3-0.7 6.9-3.8 8.4-3 1.5-7.8 0.4-11.7-2.6-0.9-0.7-2.1-0.5-2.8 0.4-0.7 0.9-0.5 2.1 0.4 2.8 3.5 2.7 7.4 4.1 11 4.1 1.8 0 3.4-0.4 4.9-1.1 2-1 5.2-3.5 5.9-9.4 1 0.2 2.3 0.4 3.7 0.4 2.4 0 5.3-0.5 8.4-2 1.7 2.6 6.3 9.6 10.7 15.2 0.4 0.5 1 0.8 1.6 0.8 0.4 0 0.9-0.1 1.2-0.4 0.9-0.7 1-1.9 0.3-2.8-4.8-6.1-9.9-14-10.9-15.6-0.9-4.3-1.7-9.8-2.2-12.7 4 0.7 7.8 1.6 10.7 2.9C62.7 47.1 62.9 47.1 63.2 47.1zM39 57.2V42.7c2.8 0.2 5.7 0.4 8.5 0.8 0.3 1.9 1.1 7.5 2 12.4C45 58.3 40.9 57.7 39 57.2z" data-fill-palette-color="accent"></path><path fill="#ffffff" d="M76.5 57.9c-4 0-7.2 3.3-7.2 7.2s3.3 7.2 7.2 7.2 7.2-3.3 7.2-7.2S80.5 57.9 76.5 57.9zM76.5 68.4c-1.8 0-3.2-1.5-3.2-3.2s1.5-3.2 3.2-3.2 3.2 1.5 3.2 3.2S78.3 68.4 76.5 68.4z" data-fill-palette-color="accent"></path><path fill="#ffffff" d="M36.1 29.5c0 4.3 3.5 7.8 7.8 7.8s7.8-3.5 7.8-7.8-3.5-7.8-7.8-7.8S36.1 25.2 36.1 29.5zM47.6 29.5c0 2.1-1.7 3.8-3.8 3.8s-3.8-1.7-3.8-3.8 1.7-3.8 3.8-3.8S47.6 27.4 47.6 29.5z" data-fill-palette-color="accent"></path></svg></g></g></svg></g><defs></defs></svg><rect width="395.52" height="247.2" fill="none" stroke="none" visibility="hidden"></rect></g></svg></g></svg>