<svg xmlns="http://www.w3.org/2000/svg" version="1.1" xmlns:xlink="http://www.w3.org/1999/xlink" xmlns:svgjs="http://svgjs.dev/svgjs" width="1500" height="1500" viewBox="0 0 1500 1500"><rect width="1500" height="1500" fill="#dedede"></rect><g transform="matrix(0.6666666666666666,0,0,0.6666666666666666,249.39393939393938,438.5856950067477)"><svg viewBox="0 0 396 247" data-background-color="#dedede" preserveAspectRatio="xMidYMid meet" height="935" width="1500" xmlns="http://www.w3.org/2000/svg" xmlns:xlink="http://www.w3.org/1999/xlink"><g id="tight-bounds" transform="matrix(1,0,0,1,0.2400000000000091,-0.09999999999999432)"><svg viewBox="0 0 395.52 247.2" height="247.2" width="395.52"><g><svg></svg></g><g><svg viewBox="0 0 395.52 247.2" height="247.2" width="395.52"><g transform="matrix(1,0,0,1,75.54432,83.32929582305565)"><svg viewBox="0 0 244.43135999999998 80.54140835388868" height="80.54140835388868" width="244.43135999999998"><g><svg viewBox="0 0 244.43135999999998 80.54140835388868" height="80.54140835388868" width="244.43135999999998"><g><svg viewBox="0 0 244.43135999999998 80.54140835388868" height="80.54140835388868" width="244.43135999999998"><g><svg viewBox="0 0 244.43135999999998 80.54140835388868" height="80.54140835388868" width="244.43135999999998"><g id="textblocktransform"><svg viewBox="0 0 244.43135999999998 80.54140835388868" height="80.54140835388868" width="244.43135999999998" id="textblock"><g><svg viewBox="0 0 244.43135999999998 43.440187108774765" height="43.440187108774765" width="244.43135999999998"><g transform="matrix(1,0,0,1,0,0)"><svg width="244.43135999999998" viewBox="1.8 -37.25 247.29 43.95" height="43.440187108774765" data-palette-color="#000000"><path d="M25.95-17.25L27.2-17.25Q28-17.25 28.48-16.78 28.95-16.3 29.65-14.9L29.65-14.9 34.25-5.7Q34.5-5.2 34.88-5.1 35.25-5 35.6-5L35.6-5 35.85-5Q36.25-5 36.6-5.33 36.95-5.65 37-6.05L37-6.05 38.25-11.75Q38.45-12.7 38.48-14.2 38.5-15.7 38.5-16.8L38.5-16.8 38.5-31.5 39-31.5 39-16.75Q39-15.65 38.98-14.15 38.95-12.65 38.75-11.7L38.75-11.7 37.5-6.05Q37.3-5.25 36.88-4.88 36.45-4.5 35.85-4.5L35.85-4.5 35.5-4.5Q35.05-4.5 34.58-4.67 34.1-4.85 33.85-5.35L33.85-5.35 29.25-14.65Q28.6-15.95 28.2-16.35 27.8-16.75 27.2-16.75L27.2-16.75 25.95-16.75Q25.35-16.75 24.95-16.35 24.55-15.95 23.9-14.65L23.9-14.65 19.3-5.35Q19.05-4.85 18.57-4.67 18.1-4.5 17.65-4.5L17.65-4.5 17.3-4.5Q16.7-4.5 16.28-4.88 15.85-5.25 15.65-6.05L15.65-6.05 14.4-11.7Q14.2-12.65 14.18-14.15 14.15-15.65 14.15-16.75L14.15-16.75 14.15-31.5 14.65-31.5 14.65-16.8Q14.65-15.7 14.68-14.2 14.7-12.7 14.9-11.75L14.9-11.75 16.15-6.05Q16.2-5.65 16.55-5.33 16.9-5 17.3-5L17.3-5 17.55-5Q17.9-5 18.28-5.1 18.65-5.2 18.9-5.7L18.9-5.7 23.5-14.9Q24.2-16.3 24.68-16.78 25.15-17.25 25.95-17.25L25.95-17.25ZM42.5-36L35.05-36Q34.1-36 33.68-35.58 33.25-35.15 33.25-34.2L33.25-34.2 33.25-15.8 30.35-22.1Q29.95-22.95 29.3-23.3 28.65-23.65 27.7-23.65L27.7-23.65 25.6-23.65Q24.65-23.65 24-23.3 23.35-22.95 22.95-22.1L22.95-22.1 20.05-15.8 20.05-34.2Q20.05-35.15 19.63-35.58 19.2-36 18.25-36L18.25-36 10.55-36Q9.6-36 9.18-35.58 8.75-35.15 8.75-34.2L8.75-34.2 8.75-14.9Q8.75-13.3 8.88-11.93 9-10.55 9.65-8.7L9.65-8.7 12.15-1.8Q12.4-1 12.98-0.5 13.55 0 14.35 0L14.35 0 20.95 0Q21.75 0 22.3-0.38 22.85-0.75 23.05-1.5L23.05-1.5 25.4-9.65Q25.55-10.15 25.78-10.33 26-10.5 26.3-10.5L26.3-10.5 26.75-10.5Q27.05-10.5 27.28-10.33 27.5-10.15 27.65-9.65L27.65-9.65 29.95-1.5Q30.15-0.7 30.8-0.35 31.45 0 32.25 0L32.25 0 38.9 0Q39.7 0 40.18-0.53 40.65-1.05 40.9-1.8L40.9-1.8 43.4-8.6Q44.05-10.45 44.18-11.83 44.3-13.2 44.3-14.8L44.3-14.8 44.3-34.2Q44.3-35.15 43.88-35.58 43.45-36 42.5-36L42.5-36ZM22 0.55L16.25 5.35Q15.9 5.6 15.45 5.78 15 5.95 14.5 5.95L14.5 5.95 7.9 5.95Q6.95 5.95 6.25 5.35 5.55 4.75 5.25 3.8L5.25 3.8 2.75-3.1Q2.05-4.95 1.93-6.38 1.8-7.8 1.8-9.45L1.8-9.45 1.8-28.75Q1.8-29.4 1.98-29.85 2.15-30.3 2.5-30.6L2.5-30.6 8.95-36.05Q9.2-36.25 9.63-36.38 10.05-36.5 10.55-36.5L10.55-36.5 18.25-36.5Q19.45-36.5 20-35.95 20.55-35.4 20.55-34.2L20.55-34.2 20.55-21.15 23.35-23.5Q23.75-23.85 24.33-24 24.9-24.15 25.6-24.15L25.6-24.15 26.3-24.15 26.3-28.75Q26.3-29.4 26.45-29.85 26.6-30.3 26.9-30.55L26.9-30.55 26.95-30.6 33.45-36.05Q33.7-36.25 34.1-36.38 34.5-36.5 35.05-36.5L35.05-36.5 42.5-36.5Q43.7-36.5 44.25-35.95 44.8-35.4 44.8-34.2L44.8-34.2 44.8-14.8Q44.8-13.15 44.68-11.73 44.55-10.3 43.85-8.45L43.85-8.45 41.35-1.65Q41.2-1.15 40.95-0.75 40.7-0.35 40.35 0L40.35 0 33.9 5.35Q33.6 5.65 33.25 5.8 32.9 5.95 32.45 5.95L32.45 5.95 25.8 5.95Q24.8 5.95 24.05 5.5 23.3 5.05 23 4.1L23 4.1 22 0.55ZM83.75-1.85L77.3 3.55Q75.55 5.05 72.4 5.88 69.25 6.7 64.3 6.7L64.3 6.7Q59.4 6.7 56.27 5.68 53.15 4.65 51.37 2.95 49.6 1.25 48.92-0.95 48.25-3.15 48.25-5.5L48.25-5.5 48.25-21.05Q48.25-23.35 48.9-25.33 49.55-27.3 51.25-28.7L51.25-28.7 57.75-34.1Q59.5-35.6 62.62-36.43 65.75-37.25 70.75-37.25L70.75-37.25Q75.65-37.25 78.77-36.45 81.9-35.65 83.67-34.23 85.45-32.8 86.1-30.83 86.75-28.85 86.75-26.5L86.75-26.5 86.75-9.45Q86.75-7.15 86.1-5.2 85.45-3.25 83.75-1.85L83.75-1.85ZM86.25-9.45L86.25-9.45 86.25-26.5Q86.25-28.8 85.57-30.68 84.9-32.55 83.17-33.9 81.45-35.25 78.42-36 75.4-36.75 70.75-36.75L70.75-36.75Q66.1-36.75 63.05-36 60-35.25 58.27-33.9 56.55-32.55 55.87-30.68 55.2-28.8 55.2-26.5L55.2-26.5 55.2-9.45Q55.2-7.15 55.87-5.28 56.55-3.4 58.27-2.08 60-0.75 63.05 0 66.1 0.75 70.75 0.75L70.75 0.75Q75.4 0.75 78.42 0 81.45-0.75 83.17-2.08 84.9-3.4 85.57-5.28 86.25-7.15 86.25-9.45ZM80.8-25.35L80.8-10.6Q80.8-7.6 78.65-5.73 76.5-3.85 70.65-3.85L70.65-3.85Q64.8-3.85 62.7-5.73 60.6-7.6 60.6-10.6L60.6-10.6 60.6-25.35Q60.6-28.35 62.7-30.23 64.8-32.1 70.65-32.1L70.65-32.1Q76.5-32.1 78.65-30.23 80.8-28.35 80.8-25.35L80.8-25.35ZM61.1-25.35L61.1-10.6Q61.1-7.8 63.1-6.08 65.1-4.35 70.65-4.35L70.65-4.35Q76.2-4.35 78.25-6.08 80.3-7.8 80.3-10.6L80.3-10.6 80.3-25.35Q80.3-28.15 78.25-29.88 76.2-31.6 70.65-31.6L70.65-31.6Q65.1-31.6 63.1-29.88 61.1-28.15 61.1-25.35L61.1-25.35ZM66.55-11.25L66.55-11.25 66.55-24.7Q66.55-25.65 67.3-26.33 68.05-27 70.75-27L70.75-27Q73.45-27 74.2-26.33 74.95-25.65 74.95-24.7L74.95-24.7 74.95-11.25Q74.95-10.25 74.2-9.58 73.45-8.9 70.75-8.9L70.75-8.9Q68.05-8.9 67.3-9.58 66.55-10.25 66.55-11.25ZM67.05-20.7L67.05-11.25Q67.05-10.75 67.25-10.38 67.45-10 68-9.75L68-9.75 68-19.25Q68-19.75 67.8-20.13 67.6-20.5 67.05-20.7L67.05-20.7ZM114.4-31L114.4-31 103.5-31 103.5-16.55 114.4-16.55Q117.5-16.55 118.55-18.05 119.6-19.55 119.6-22.3L119.6-22.3 119.6-25.8Q119.6-28.1 118.32-29.55 117.05-31 114.4-31ZM108.9-20.6L108.9-27 112.65-27Q113.95-27 114.4-26.33 114.85-25.65 114.85-24.65L114.85-24.65 114.85-22.95Q114.85-21.95 114.4-21.28 113.95-20.6 112.65-20.6L112.65-20.6 108.9-20.6ZM103.5-16.1L103.5-4.5 103-4.5 103-31.5 114.4-31.5Q117.3-31.5 118.7-29.88 120.1-28.25 120.1-25.8L120.1-25.8 120.1-22.35Q120.1-20.05 119.5-18.57 118.9-17.1 117.1-16.55L117.1-16.55 117.65-16.55Q120.7-16.55 122.2-15.18 123.7-13.8 123.7-11.2L123.7-11.2 123.7-4.5 123.2-4.5 123.2-11.2Q123.2-13.65 121.85-14.88 120.5-16.1 117.65-16.1L117.65-16.1 103.5-16.1ZM99.4 0L107.1 0Q108.05 0 108.47-0.43 108.9-0.85 108.9-1.8L108.9-1.8 108.9-11.6 115.9-11.6Q116.95-11.6 117.37-11.08 117.8-10.55 117.8-9.45L117.8-9.45 117.8-1.8Q117.8-0.85 118.22-0.43 118.65 0 119.6 0L119.6 0 127.35 0Q128.3 0 128.72-0.43 129.15-0.85 129.15-1.8L129.15-1.8 129.15-12.4Q129.15-15.55 127.47-17.45 125.8-19.35 123.1-19.65L123.1-19.65Q124.65-20.3 125.27-21.78 125.9-23.25 125.9-25.35L125.9-25.35 125.9-27.65Q125.9-31.35 123.77-33.68 121.65-36 116.05-36L116.05-36 99.4-36Q98.45-36 98.02-35.58 97.6-35.15 97.6-34.2L97.6-34.2 97.6-1.8Q97.6-0.85 98.02-0.43 98.45 0 99.4 0L99.4 0ZM108.7 0.05L108.7 0.05 102.2 5.45Q102 5.65 101.57 5.8 101.15 5.95 100.65 5.95L100.65 5.95 92.95 5.95Q91.75 5.95 91.2 5.4 90.65 4.85 90.65 3.65L90.65 3.65 90.65-28.75Q90.65-29.4 90.82-29.85 91-30.3 91.35-30.6L91.35-30.6 97.8-36.05Q98.05-36.25 98.47-36.38 98.9-36.5 99.4-36.5L99.4-36.5 116.05-36.5Q122-36.5 124.2-34.02 126.4-31.55 126.4-27.65L126.4-27.65 126.4-25.35Q126.4-23.5 125.95-22.13 125.5-20.75 124.5-19.9L124.5-19.9 124.45-19.9Q126.8-19.25 128.22-17.3 129.65-15.35 129.65-12.4L129.65-12.4 129.65-1.8Q129.65-1.15 129.47-0.7 129.3-0.25 128.95 0.05L128.95 0.05 122.45 5.45Q122.25 5.65 121.82 5.8 121.4 5.95 120.9 5.95L120.9 5.95 113.15 5.95Q111.95 5.95 111.4 5.4 110.85 4.85 110.85 3.65L110.85 3.65 110.85-4Q110.85-4.8 110.55-5.23 110.25-5.65 109.45-5.65L109.45-5.65 109.4-5.65 109.4-1.8Q109.4-1.15 109.22-0.7 109.05-0.25 108.7 0.05ZM168.04-2.1L161.54 3.3Q159.99 4.6 157.59 5.28 155.19 5.95 151.94 5.95L151.94 5.95 135.09 5.95Q133.89 5.95 133.34 5.4 132.79 4.85 132.79 3.65L132.79 3.65 132.79-28.75Q132.79-29.4 132.97-29.85 133.14-30.3 133.49-30.6L133.49-30.6 139.94-36.05Q140.19-36.25 140.62-36.38 141.04-36.5 141.54-36.5L141.54-36.5 158.39-36.5Q164.94-36.5 168.07-33.85 171.19-31.2 171.19-25.8L171.19-25.8 171.19-10.2Q171.19-7.5 170.39-5.48 169.59-3.45 168.04-2.1L168.04-2.1ZM141.54 0L158.39 0Q164.64 0 167.67-2.5 170.69-5 170.69-10.2L170.69-10.2 170.69-25.8Q170.69-31 167.67-33.5 164.64-36 158.39-36L158.39-36 141.54-36Q140.59-36 140.17-35.58 139.74-35.15 139.74-34.2L139.74-34.2 139.74-1.8Q139.74-0.85 140.17-0.43 140.59 0 141.54 0L141.54 0ZM157.29-4.5L145.19-4.5 145.19-31.5 157.29-31.5Q159.84-31.5 161.42-30.95 162.99-30.4 163.84-29.48 164.69-28.55 164.99-27.28 165.29-26 165.29-24.55L165.29-24.55 165.29-11.3Q165.29-9.85 165.02-8.6 164.74-7.35 163.89-6.45 163.04-5.55 161.44-5.03 159.84-4.5 157.29-4.5L157.29-4.5ZM157.29-31L157.29-31 145.69-31 145.69-5 157.29-5Q159.69-5 161.17-5.48 162.64-5.95 163.44-6.78 164.24-7.6 164.52-8.78 164.79-9.95 164.79-11.3L164.79-11.3 164.79-24.55Q164.79-25.9 164.49-27.1 164.19-28.3 163.39-29.15 162.59-30 161.12-30.5 159.64-31 157.29-31ZM151.09-9.45L151.09-26.45 157.04-26.45Q158.24-26.45 158.82-25.88 159.39-25.3 159.39-24.05L159.39-24.05 159.39-11.9Q159.39-10.65 158.82-10.05 158.24-9.45 157.04-9.45L157.04-9.45 151.09-9.45ZM152.44-9.95L152.44-18.6Q152.44-19.25 152.24-19.7 152.04-20.15 151.59-20.35L151.59-20.35 151.59-9.95 152.44-9.95ZM202.84 5.95L202.84 5.95 177.39 5.95Q176.19 5.95 175.64 5.4 175.09 4.85 175.09 3.65L175.09 3.65 175.09-28.75Q175.09-29.4 175.27-29.85 175.44-30.3 175.79-30.6L175.79-30.6 182.24-36.05Q182.49-36.25 182.92-36.38 183.34-36.5 183.84-36.5L183.84-36.5 191.59-36.5Q192.79-36.5 193.34-35.95 193.89-35.4 193.89-34.2L193.89-34.2 193.89-13.85 193.99-13.95 200.44-19.4Q200.69-19.6 201.12-19.73 201.54-19.85 202.04-19.85L202.04-19.85 209.29-19.85Q210.49-19.85 211.04-19.3 211.59-18.75 211.59-17.55L211.59-17.55 211.59-1.8Q211.59-1.15 211.42-0.7 211.24-0.25 210.89 0.05L210.89 0.05 204.39 5.45Q204.19 5.65 203.77 5.8 203.34 5.95 202.84 5.95ZM183.84 0L209.29 0Q210.24 0 210.67-0.43 211.09-0.85 211.09-1.8L211.09-1.8 211.09-17.55Q211.09-18.5 210.67-18.93 210.24-19.35 209.29-19.35L209.29-19.35 202.04-19.35Q201.09-19.35 200.67-18.93 200.24-18.5 200.24-17.55L200.24-17.55 200.24-9.45 193.39-9.45 193.39-34.2Q193.39-35.15 192.97-35.58 192.54-36 191.59-36L191.59-36 183.84-36Q182.89-36 182.47-35.58 182.04-35.15 182.04-34.2L182.04-34.2 182.04-1.8Q182.04-0.85 182.47-0.43 182.89 0 183.84 0L183.84 0ZM205.89-4.5L187.49-4.5 187.49-31.5 187.99-31.5 187.99-5 205.39-5 205.39-14.85 205.89-14.85 205.89-4.5ZM240.34 5.95L240.34 5.95 217.14 5.95Q215.94 5.95 215.39 5.4 214.84 4.85 214.84 3.65L214.84 3.65 214.84-28.75Q214.84-29.4 215.01-29.85 215.19-30.3 215.54-30.6L215.54-30.6 221.99-36.05Q222.24-36.25 222.66-36.38 223.09-36.5 223.59-36.5L223.59-36.5 246.79-36.5Q247.99-36.5 248.54-35.95 249.09-35.4 249.09-34.2L249.09-34.2 249.09-28.35Q249.09-27.7 248.91-27.25 248.74-26.8 248.39-26.5L248.39-26.5 244.09-22.95Q244.59-22.7 244.81-22.2 245.04-21.7 245.04-20.9L245.04-20.9 245.04-15.55Q245.04-14.9 244.86-14.45 244.69-14 244.34-13.7L244.34-13.7 239.89-9.95 246.79-9.95Q247.99-9.95 248.54-9.4 249.09-8.85 249.09-7.65L249.09-7.65 249.09-1.8Q249.09-1.15 248.91-0.7 248.74-0.25 248.39 0.05L248.39 0.05 241.89 5.45Q241.69 5.65 241.26 5.8 240.84 5.95 240.34 5.95ZM223.59 0L246.79 0Q247.74 0 248.16-0.43 248.59-0.85 248.59-1.8L248.59-1.8 248.59-7.65Q248.59-8.6 248.16-9.03 247.74-9.45 246.79-9.45L246.79-9.45 232.99-9.45 232.99-13.75 242.74-13.75Q243.69-13.75 244.11-14.18 244.54-14.6 244.54-15.55L244.54-15.55 244.54-20.9Q244.54-21.85 244.11-22.28 243.69-22.7 242.74-22.7L242.74-22.7 232.99-22.7 232.99-26.55 246.79-26.55Q247.74-26.55 248.16-26.98 248.59-27.4 248.59-28.35L248.59-28.35 248.59-34.2Q248.59-35.15 248.16-35.58 247.74-36 246.79-36L246.79-36 223.59-36Q222.64-36 222.21-35.58 221.79-35.15 221.79-34.2L221.79-34.2 221.79-1.8Q221.79-0.85 222.21-0.43 222.64 0 223.59 0L223.59 0ZM227.74-5L244.09-5 244.09-4.5 227.24-4.5 227.24-31.5 244.09-31.5 244.09-31 227.74-31 227.74-18.45 240.04-18.45 240.04-17.95 227.74-17.95 227.74-5Z" opacity="1" transform="matrix(1,0,0,1,0,0)" fill="#000000" class="wordmark-text-0" data-fill-palette-color="primary" id="text-0"></path></svg></g></svg></g><g transform="matrix(1,0,0,1,0,53.69537272066587)"><svg viewBox="0 0 244.43135999999998 26.846035633222805" height="26.846035633222805" width="244.43135999999998"><g transform="matrix(1,0,0,1,0,0)"><svg width="244.43135999999998" viewBox="1 -35.5 411.09 45.15" height="26.846035633222805" data-palette-color="#61777f"><path d="M13.75-18L13.75-0.3Q13.75 0.3 9.55 0.3L9.55 0.3Q4.55 0.1 4.55-0.35L4.55-0.35 4.55-18.05 2-18.05Q1-18.05 1-21.5L1-21.5Q1-22.4 1.18-23.7 1.35-25 1.9-25L1.9-25 4.55-25 4.55-29.4Q4.55-30.4 8.78-30.4 13-30.4 13-29.6L13-29.6 13-26.4 13.05-25 17.3-25Q18.15-25 18.15-21.5 18.15-18 17.3-18L17.3-18 13.75-18ZM30.49-16.55L30.49-0.35Q30.49 0.1 26.31 0.1 22.14 0.1 22.14-0.6L22.14-0.6 22.14-34.85Q22.14-35.2 23.69-35.35 25.24-35.5 26.29-35.5L26.29-35.5Q30.49-35.5 30.49-34.6L30.49-34.6 30.49-24.6Q33.29-25.45 34.74-25.45L34.74-25.45Q38.54-25.45 40.74-23.43 42.94-21.4 42.94-15.9L42.94-15.9 42.94-0.4Q42.94 0.05 39.04 0.05L39.04 0.05Q34.64-0.1 34.64-0.45L34.64-0.45 34.64-15.15Q34.64-17.6 33.04-17.6L33.04-17.6Q31.94-17.6 30.49-16.55L30.49-16.55ZM67.58-1.35L67.58-1.35Q64.43 0.5 59.48 0.5 54.53 0.5 51.13-2.88 47.73-6.25 47.73-12.23 47.73-18.2 51-21.85 54.28-25.5 59.28-25.5 64.28-25.5 67-22.95 69.73-20.4 69.73-16.75L69.73-16.75Q69.73-8.65 60.43-8.65L60.43-8.65 56.98-8.65Q56.98-7.15 57.8-6.58 58.63-6 60.23-6L60.23-6Q63.73-6 66.88-7.6L66.88-7.6Q66.93-7.65 67.33-6.9L67.33-6.9Q68.53-4.75 68.53-3.28 68.53-1.8 67.58-1.35ZM61.33-15.8L61.33-15.8Q61.33-17.9 59.28-17.9L59.28-17.9Q58.33-17.9 57.65-17.32 56.98-16.75 56.98-15.65L56.98-15.65 56.98-14.1 59.68-14.1Q61.33-14.1 61.33-15.8ZM94.56 0L94.56 0Q89.71 0 87.06-3.13 84.41-6.25 84.41-12.38 84.41-18.5 87.88-21.98 91.36-25.45 97.13-25.45 102.91-25.45 106.66-22.9L106.66-22.9 106.66 2Q106.66 5.7 103.66 7.68 100.66 9.65 95.96 9.65 91.26 9.65 87.56 8.45L87.56 8.45Q87.06 7.25 87.06 6.3L87.06 6.3Q87.06 3.1 88.11 1.6L88.11 1.6Q91.46 3.05 95.26 3.05L95.26 3.05Q98.01 3.05 98.01 1.1L98.01 1.1 98.01-0.4Q95.86 0 94.56 0ZM96.86-17.3L96.86-17.3Q93.51-17.3 93.51-12.25L93.51-12.25Q93.51-9.1 94.81-8.15L94.81-8.15Q95.66-7.5 96.51-7.5 97.36-7.5 98.01-7.65L98.01-7.65 98.01-17.15Q97.41-17.3 96.86-17.3ZM115.8-18.15L115.8-18.15Q114.4-20.65 114.4-22.23 114.4-23.8 115.25-24.25L115.25-24.25Q118.1-25.5 123.07-25.5 128.05-25.5 130.1-23.18 132.15-20.85 132.15-16.3L132.15-16.3 132.15-8.4 133.85-8.4Q134.7-8.4 135.17-7.4 135.65-6.4 135.65-4.65 135.65-2.9 134.77-1.2 133.9 0.5 132.4 0.5L132.4 0.5Q129.7 0.5 128.05-0.95L128.05-0.95Q127.3-1.55 126.9-2.4L126.9-2.4Q124.6 0.5 119.75 0.5L119.75 0.5Q116.1 0.5 113.6-2.1 111.1-4.7 111.1-8.25L111.1-8.25Q111.1-16.4 120.85-16.4L120.85-16.4 123.6-16.4 123.6-16.9Q123.6-18.2 123.17-18.57 122.75-18.95 121.2-18.95L121.2-18.95Q119.3-18.95 115.8-18.15ZM119.8-8.95L119.8-8.95Q119.8-7.85 120.4-7.28 121-6.7 121.92-6.7 122.85-6.7 123.6-7.45L123.6-7.45 123.6-11.3 122.2-11.3Q119.8-11.3 119.8-8.95ZM162.64-16.3L162.64-0.25Q162.64 0.1 158.36 0.1 154.09 0.1 154.09-0.35L154.09-0.35 154.09-14.9Q154.09-17.4 152.44-17.4L152.44-17.4Q151.59-17.4 150.19-16.3L150.19-16.3 150.19-0.3Q150.19 0.2 145.91 0.2 141.64 0.2 141.64-0.35L141.64-0.35 141.64-16.7 140.39-16.7Q138.74-16.7 138.74-20.15L138.74-20.15Q138.74-21.7 139.34-23.3L139.34-23.3Q140.14-25.5 141.94-25.5 143.74-25.5 145.41-24.55 147.09-23.6 147.44-22.75L147.44-22.75Q150.54-25.5 154.31-25.5 158.09-25.5 160.39-23.15L160.39-23.15Q163.09-25.5 166.89-25.5L166.89-25.5Q175.14-25.5 175.14-15.45L175.14-15.45 175.14-0.25Q175.14 0.1 170.86 0.1 166.59 0.1 166.59-0.35L166.59-0.35 166.59-14.9Q166.59-17.4 164.94-17.4L164.94-17.4Q164.04-17.4 162.64-16.3L162.64-16.3ZM199.78-1.35L199.78-1.35Q196.63 0.5 191.68 0.5 186.73 0.5 183.33-2.88 179.93-6.25 179.93-12.23 179.93-18.2 183.2-21.85 186.48-25.5 191.48-25.5 196.48-25.5 199.2-22.95 201.93-20.4 201.93-16.75L201.93-16.75Q201.93-8.65 192.63-8.65L192.63-8.65 189.18-8.65Q189.18-7.15 190-6.58 190.83-6 192.43-6L192.43-6Q195.93-6 199.08-7.6L199.08-7.6Q199.13-7.65 199.53-6.9L199.53-6.9Q200.73-4.75 200.73-3.28 200.73-1.8 199.78-1.35ZM193.53-15.8L193.53-15.8Q193.53-17.9 191.48-17.9L191.48-17.9Q190.53-17.9 189.85-17.32 189.18-16.75 189.18-15.65L189.18-15.65 189.18-14.1 191.88-14.1Q193.53-14.1 193.53-15.8ZM219.73-2.95Q216.61-6.4 216.61-12.5 216.61-18.6 219.73-22.05 222.86-25.5 228.16-25.5 233.46-25.5 236.56-22.05 239.66-18.6 239.66-12.5 239.66-6.4 236.56-2.95 233.46 0.5 228.16 0.5 222.86 0.5 219.73-2.95ZM228.18-17.15Q225.36-17.15 225.36-12.55 225.36-7.95 228.18-7.95 231.01-7.95 231.01-12.55 231.01-17.15 228.18-17.15ZM246.65-0.6L246.65-18.35 244.2-18.35Q243.45-18.35 243.45-21.68 243.45-25 244.2-25L244.2-25 246.65-25 246.65-26.1Q246.65-31.4 248.87-33.43 251.1-35.45 255.1-35.45 259.1-35.45 262.15-34L262.15-34Q262.55-33.85 262.55-32.93 262.55-32 261.7-29.95 260.85-27.9 260.25-27.6L260.25-27.6Q258.55-28.65 256.75-28.65L256.75-28.65Q254.8-28.65 254.8-26.05L254.8-26.05 254.8-25 258.95-25Q259.85-25 259.85-21.8L259.85-21.8Q259.85-18.3 258.7-18.3L258.7-18.3 255.5-18.3 255.5-0.6Q255.5 0 251.07 0 246.65 0 246.65-0.6L246.65-0.6ZM299.98-8.4L301.78-24.75Q301.78-25.2 304.53-25.2L304.53-25.2Q310.73-25.2 310.63-24.8L310.63-24.8 305.73-0.5Q305.58 0.3 300.18 0.3 294.78 0.3 294.63-0.5L294.63-0.5 292.58-11.7 290.03-0.5Q289.88 0.25 284.3 0.25 278.73 0.25 278.58-0.65L278.58-0.65 274.13-25Q273.98-25.3 278.43-25.3L278.43-25.3Q282.83-25.25 282.83-25.1L282.83-25.1 285.13-8.2 289.28-24.9Q289.38-25.2 292.58-25.2 295.78-25.2 295.88-24.9L295.88-24.9 299.98-8.4ZM317.09-2.95Q313.97-6.4 313.97-12.5 313.97-18.6 317.09-22.05 320.22-25.5 325.52-25.5 330.82-25.5 333.92-22.05 337.02-18.6 337.02-12.5 337.02-6.4 333.92-2.95 330.82 0.5 325.52 0.5 320.22 0.5 317.09-2.95ZM325.54-17.15Q322.72-17.15 322.72-12.55 322.72-7.95 325.54-7.95 328.37-7.95 328.37-12.55 328.37-17.15 325.54-17.15ZM353.01-14L353.01-0.05Q353.01 0.3 348.46 0.3L348.46 0.3Q343.91 0.2 343.91-0.1L343.91-0.1 343.91-16.7 342.56-16.7Q341.76-16.7 341.28-17.68 340.81-18.65 340.81-20.1L340.81-20.1Q340.81-25.5 344.01-25.5L344.01-25.5Q346.26-25.5 347.76-24.13 349.26-22.75 349.26-21L349.26-21Q350.31-23.05 352.08-24.28 353.86-25.5 355.71-25.5L355.71-25.5Q358.61-25.5 359.21-24L359.21-24Q359.36-23.6 359.36-22.83 359.36-22.05 358.88-20.05 358.41-18.05 357.91-17.15 357.41-16.25 357.31-16.25 357.21-16.25 356.38-16.63 355.56-17 354.91-17L354.91-17Q353.01-17 353.01-14L353.01-14ZM376-25.2L376-34.7Q376-35.45 379.95-35.45L379.95-35.45Q381.3-35.45 383.07-35.27 384.85-35.1 384.85-34.8L384.85-34.8 384.85-8.45 386.6-8.45Q387.85-8.45 388.25-6.2L388.25-6.2Q388.35-5.55 388.35-4.42 388.35-3.3 387.65-1.7L387.65-1.7Q386.65 0.5 384.45 0.5L384.45 0.5Q382.8 0.5 381.52-0.15 380.25-0.8 379.8-1.5L379.8-1.5 379.35-2.15Q376.6 0.5 372.45 0.5 368.3 0.5 365.35-2.95 362.4-6.4 362.4-12.58 362.4-18.75 365.5-22.13 368.6-25.5 373.25-25.5L373.25-25.5Q374.6-25.5 376-25.2L376-25.2ZM374.35-17.5L374.35-17.5Q371.55-17.5 371.55-12.45L371.55-12.45Q371.55-9.9 372.35-8.78 373.15-7.65 374.12-7.65 375.1-7.65 376-8.5L376-8.5 376-17Q375.15-17.5 374.35-17.5ZM394.14-9L394.14-9Q398.19-6.55 400.54-6.55L400.54-6.55Q402.04-6.55 402.04-7.6L402.04-7.6Q402.04-8.35 399.44-9.55L399.44-9.55Q393.19-12.1 393.19-17.9L393.19-17.9Q393.19-21.6 395.89-23.55 398.59-25.5 402.36-25.5 406.14-25.5 408.76-24.7 411.39-23.9 411.39-22.6L411.39-22.6Q411.39-21.5 410.31-19.7 409.24-17.9 408.84-17.75L408.84-17.75Q406.69-18.95 404.19-18.95L404.19-18.95Q402.84-18.95 402.84-18L402.84-18Q402.84-17.4 403.36-16.98 403.89-16.55 405.29-15.93 406.69-15.3 407.61-14.8 408.54-14.3 409.69-13.4L409.69-13.4Q412.09-11.5 412.09-8.45L412.09-8.45Q412.09-4.45 409.44-1.98 406.79 0.5 401.44 0.5L401.44 0.5Q397.89 0.5 394.99-0.7 392.09-1.9 392.09-4L392.09-4Q392.09-5.4 392.76-6.95 393.44-8.5 394.14-9Z" opacity="1" transform="matrix(1,0,0,1,0,0)" fill="#61777f" class="slogan-text-1" data-fill-palette-color="secondary" id="text-1"></path></svg></g></svg></g></svg></g></svg></g></svg></g></svg></g></svg></g><path d="M217.296 77.329L217.296 15.62 1.336 15.62 1.336 231.58 217.296 231.58 217.296 169.871 213.379 169.871 213.379 227.663 5.254 227.663 5.254 19.537 213.379 19.537 213.379 77.329Z" fill="#000000" stroke="transparent" data-fill-palette-color="tertiary"></path></svg></g><defs></defs></svg><rect width="395.52" height="247.2" fill="none" stroke="none" visibility="hidden"></rect></g></svg></g></svg>