<svg xmlns="http://www.w3.org/2000/svg" version="1.1" xmlns:xlink="http://www.w3.org/1999/xlink" xmlns:svgjs="http://svgjs.dev/svgjs" width="1500" height="522" viewBox="0 0 1500 522"><g transform="matrix(1,0,0,1,-0.9090909090909918,-0.4001092425825732)"><svg viewBox="0 0 396 138" data-background-color="#000000" preserveAspectRatio="xMidYMid meet" height="522" width="1500" xmlns="http://www.w3.org/2000/svg" xmlns:xlink="http://www.w3.org/1999/xlink"><g id="tight-bounds" transform="matrix(1,0,0,1,0.2400000000000091,0.10577600665976661)"><svg viewBox="0 0 395.52 137.78844798668044" height="137.78844798668044" width="395.52"><g><svg viewBox="0 0 701.6371322837274 244.43136" height="137.78844798668044" width="395.52"><g transform="matrix(1,0,0,1,0,44.03925711895788)"><svg viewBox="0 0 395.52000000000004 156.35284576208426" height="156.35284576208426" width="395.52000000000004"><g id="textblocktransform"><svg viewBox="0 0 395.52000000000004 156.35284576208426" height="156.35284576208426" width="395.52000000000004" id="textblock"><g><svg viewBox="0 0 395.52000000000004 104.51849791376912" height="104.51849791376912" width="395.52000000000004"><g transform="matrix(1,0,0,1,0,0)"><svg width="395.52000000000004" viewBox="1 -37.5 143.79 38" height="104.51849791376912" data-palette-color="#dedede"><path d="M1-21.6L1-25 8.95-25 8.95-21.6 6.75-21.6 10.8-3.45 15.45-25 20.95-25 25.75-3.35 29.85-21.6 27.6-21.6 27.6-25 35.6-25 35.6-21.6 33.2-21.6 28.45 0 23.1 0 18.35-21.65 13.5 0 7.9 0Q7.9 0 7.55-1.6L7.55-1.6Q7.2-3.25 6.68-5.65 6.15-8.05 5.55-10.85 4.95-13.65 4.42-16.05 3.9-18.45 3.5-20L3.5-20 3.15-21.6 1-21.6ZM52.5 0L43.25 0Q40.7 0 39.65-1.18 38.6-2.35 38.6-4.45L38.6-4.45 38.6-20.55Q38.6-22.55 39.52-23.78 40.45-25 43.25-25L43.25-25 52.5-25Q55.25-25 56.2-23.78 57.15-22.55 57.15-20.55L57.15-20.55 57.15-4.45Q57.15-2.35 56.1-1.18 55.05 0 52.5 0L52.5 0ZM42.65-21.6L42.65-3.4 53.1-3.4 53.1-21.6 42.65-21.6ZM76.3-25L76.3-25Q80.2-25 80.2-21.15L80.2-21.15 80.2-16.7 76.15-16.7 76.15-21.55 68.35-16.6 68.35-3.4 70.8-3.4 70.8 0 61.15 0 61.15-3.4 64.3-3.4 64.3-21.65 61.15-21.65 61.15-25.05 68.35-25.05 68.35-20.65 74.5-24.5Q75.3-25 76.3-25ZM103.39-3.45L106.54-3.45 106.54 0 99.29 0 99.29-5.75 90.64-0.3Q89.09 0.5 87.72 0.5 86.34 0.5 85.52-0.5 84.69-1.5 84.69-2.8L84.69-2.8 84.69-20.3Q84.69-22.6 85.39-23.45L85.39-23.45Q86.59-25 89.19-25L89.19-25 99.29-25 99.29-34.1 95.99-34.1 95.99-37.5 103.39-37.5 103.39-3.45ZM99.29-9.75L99.29-21.6 88.69-21.6 88.69-3.15 99.29-9.75ZM118.29-37.5L118.29-3.4 121.54-3.4 121.54 0 111.04 0 111.04-3.4 114.19-3.4 114.19-34.1 111.04-34.1 111.04-37.5 118.29-37.5ZM126.54-3.65L126.54-20.1Q126.54-25.05 131.69-25.05L131.69-25.05 140.14-25.05Q142.59-25.05 143.69-24.1 144.79-23.15 144.79-20.6L144.79-20.6 144.79-15.95 130.54-6.95 130.54-3.4 140.84-3.4 140.84-6.3 144.79-6.3 144.79-3.65Q144.79-2.15 143.86-1.07 142.94 0 140.79 0L140.79 0 130.54 0Q128.39 0 127.46-1.07 126.54-2.15 126.54-3.65L126.54-3.65ZM130.54-21.6L130.54-11 140.79-17.45 140.79-21.6 130.54-21.6Z" opacity="1" transform="matrix(1,0,0,1,0,0)" fill="#dedede" class="wordmark-text-0" data-fill-palette-color="primary" id="text-0"></path></svg></g></svg></g><g transform="matrix(1,0,0,1,163.31020800000002,129.19280682726009)"><svg viewBox="0 0 232.20979200000002 27.16003893482419" height="27.16003893482419" width="232.20979200000002"><g transform="matrix(1,0,0,1,0,0)"><svg width="232.20979200000002" viewBox="0.4 -32.4 339.81 39.75" height="27.16003893482419" data-palette-color="#dedede"><path d="M15.25-6.6L15 0.05Q11.3 0.5 8.58 0.5 5.85 0.5 4.33-0.93 2.8-2.35 2.8-5.85L2.8-5.85 2.8-17.45 0.4-17.45 0.4-23.65 3.2-23.65 3.65-28.25 11.2-28.25 11.2-23.65 15.65-23.65 15.3-17.45 11.15-17.45 11.15-7.5Q11.15-6.45 12.15-6.45L12.15-6.45Q12.25-6.45 15.25-6.6L15.25-6.6ZM25.7-22.2L25.9-22.2Q28.65-24.55 31.85-24.55 35.05-24.55 36.37-23.03 37.7-21.5 37.7-18.45L37.7-18.45 37.7 0 29.2 0 29.2-15.6Q29.2-16.85 28.1-16.85L28.1-16.85Q26.7-16.85 25.75-16.15L25.75-16.15 25.75 0 17.35 0 17.35-32.05 25.7-32.05 25.7-22.2ZM50.7-17.4L50.7-17.4Q49.4-17.4 49-16.53 48.6-15.65 48.6-13.85L48.6-13.85 52.95-13.85 52.95-15.05Q52.95-17.4 50.7-17.4ZM50.9-24.55L50.9-24.55Q56.05-24.55 58.27-22.08 60.5-19.6 60.5-15L60.5-15Q60.5-14.4 60.15-9.6L60.15-9.6 48.75-9.6Q48.75-5.85 52.2-5.85L52.2-5.85Q53.85-5.85 58.65-7L58.65-7 59.35-0.8Q55.15 0.5 50.95 0.5L50.95 0.5Q45.8 0.5 43.05-2.88 40.3-6.25 40.3-12.05L40.3-12.05Q40.3-24.55 50.9-24.55ZM80.54 2.2L80.54 2.2 85.69 2.2Q86.59 2.2 86.59 1.4L86.59 1.4 86.59 1.2Q86.59 0.45 85.69 0.45L85.69 0.45 80.54 0.45Q79.74 0.45 79.74 1.25L79.74 1.25 79.74 1.45Q79.74 2.2 80.54 2.2ZM82.54-24.55L82.54-24.55 94.34-24.55 94.34-18.95 90.74-18.95 90.74-18.7Q92.34-17.3 92.34-15.05L92.34-15.05Q92.34-7.05 83.29-7.05L83.29-7.05 80.89-7.05Q79.99-7.05 79.99-6.23 79.99-5.4 80.84-5.4L80.84-5.4 87.64-5.4Q93.39-5.4 93.39-0.4L93.39-0.4Q93.39 3.7 90.64 5.53 87.89 7.35 83.04 7.35 78.19 7.35 75.72 6.33 73.24 5.3 73.24 2.5L73.24 2.5Q73.24 0.95 75.19-0.1L75.19-0.1 75.19-0.3Q72.74-1.65 72.74-4.2L72.74-4.2Q72.74-7.2 76.59-8.75L76.59-8.75Q74.79-10.05 73.92-11.78 73.04-13.5 73.04-16.35L73.04-16.35Q73.04-20.3 75.62-22.43 78.19-24.55 82.54-24.55ZM84.74-14.95Q84.74-16.55 84.37-17.28 83.99-18 82.99-18 81.99-18 81.62-17.28 81.24-16.55 81.24-15.05L81.24-15.05Q81.24-12 83.04-12L83.04-12Q84.74-12 84.74-14.95L84.74-14.95ZM113.84-17.7L113.84-17.7 113.59-7.35Q113.59-6.4 114.06-6.08 114.54-5.75 115.69-5.75L115.69-5.75 114.94 0.3Q112.04 0.5 111.74 0.5L111.74 0.5Q108.04 0.5 107.04-2.05L107.04-2.05 106.79-2.05Q104.94 0.5 101.09 0.5L101.09 0.5Q98.14 0.5 96.56-1.4 94.99-3.3 94.99-6.6L94.99-6.6Q94.99-10.75 97.56-12.35 100.14-13.95 105.69-14.45L105.69-14.45 105.69-15.65Q105.69-17.05 104.29-17.05L104.29-17.05Q101.89-17.05 96.79-15.6L96.79-15.6 95.54-22.9Q101.94-24.55 106.19-24.55 110.44-24.55 112.14-22.9 113.84-21.25 113.84-17.7ZM104.19-5.35L104.19-5.35Q106.04-5.35 106.04-7.3L106.04-7.3 106.04-9.75Q104.19-9.5 103.41-8.97 102.64-8.45 102.64-7.2L102.64-7.2Q102.64-5.35 104.19-5.35ZM137.39-21.75L137.89-22.2Q140.64-24.55 143.94-24.55 147.24-24.55 148.56-23.03 149.89-21.5 149.89-18.45L149.89-18.45 149.89 0 141.39 0 141.39-15.6Q141.39-16.85 140.29-16.85L140.29-16.85Q138.89-16.85 137.94-16.15L137.94-16.15 137.94 0 129.44 0 129.44-15.6Q129.44-16.85 128.34-16.85L128.34-16.85Q126.94-16.85 125.99-16.15L125.99-16.15 125.99 0 117.59 0 117.59-23.95 125.24-23.95 125.74-22.2 125.94-22.2Q128.69-24.55 132.46-24.55 136.24-24.55 137.39-21.75L137.39-21.75ZM162.88-17.4L162.88-17.4Q161.58-17.4 161.18-16.53 160.78-15.65 160.78-13.85L160.78-13.85 165.13-13.85 165.13-15.05Q165.13-17.4 162.88-17.4ZM163.08-24.55L163.08-24.55Q168.23-24.55 170.46-22.08 172.68-19.6 172.68-15L172.68-15Q172.68-14.4 172.33-9.6L172.33-9.6 160.93-9.6Q160.93-5.85 164.38-5.85L164.38-5.85Q166.03-5.85 170.83-7L170.83-7 171.53-0.8Q167.33 0.5 163.13 0.5L163.13 0.5Q157.98 0.5 155.23-2.88 152.48-6.25 152.48-12.05L152.48-12.05Q152.48-24.55 163.08-24.55ZM185.08-12.08Q185.08-18.65 187.6-21.6 190.13-24.55 195.5-24.55 200.88-24.55 203.33-21.65 205.78-18.75 205.78-12.13 205.78-5.5 203.38-2.5 200.98 0.5 195.53 0.5 190.08 0.5 187.58-2.5 185.08-5.5 185.08-12.08ZM197.1-16.8Q196.78-17.8 195.48-17.8 194.18-17.8 193.83-16.8 193.48-15.8 193.48-12.6L193.48-12.6 193.48-11.4Q193.48-7.85 193.83-6.8 194.18-5.75 195.45-5.75 196.73-5.75 197.08-6.8 197.43-7.85 197.43-11.1L197.43-11.1 197.43-12.55Q197.43-15.8 197.1-16.8ZM216.28-32.4L216.28-32.4Q219.38-32.4 222.78-32.1L222.78-32.1 222.08-24.8Q219.83-25.05 218.8-25.05 217.78-25.05 217.78-24.15L217.78-24.15 217.78-23.25 221.88-23.25 221.48-17.05 217.88-17.05 217.88 0 209.53 0 209.53-17.05 207.33-17.05 207.33-23.25 209.53-23.25 209.53-25.75Q209.53-32.4 216.28-32.4ZM253.27-23.95L260.67-23.95 257.62 0 248.47 0 246.52-10.1 246.17-10.1 244.27 0 235.32 0 232.27-23.95 239.97-23.95 241.02-11.85 241.42-11.85 243.12-23.95 250.07-23.95 251.72-11.85 252.17-11.85 253.27-23.95ZM262.02-12.08Q262.02-18.65 264.54-21.6 267.07-24.55 272.44-24.55 277.82-24.55 280.27-21.65 282.72-18.75 282.72-12.13 282.72-5.5 280.32-2.5 277.92 0.5 272.47 0.5 267.02 0.5 264.52-2.5 262.02-5.5 262.02-12.08ZM274.04-16.8Q273.72-17.8 272.42-17.8 271.12-17.8 270.77-16.8 270.42-15.8 270.42-12.6L270.42-12.6 270.42-11.4Q270.42-7.85 270.77-6.8 271.12-5.75 272.39-5.75 273.67-5.75 274.02-6.8 274.37-7.85 274.37-11.1L274.37-11.1 274.37-12.55Q274.37-15.8 274.04-16.8ZM293.62-13.45L293.62-13.45 293.62 0 285.31 0 285.31-23.95 292.62-23.95 293.12-22.5 293.31-22.5Q294.46-23.8 295.64-24.18 296.81-24.55 299.46-24.55L299.46-24.55 299.12-16.55 296.81-16.55Q294.87-16.55 294.24-15.95 293.62-15.35 293.62-13.45ZM322.91-5.75L322.16 0.3 318.81 0.5Q314.96 0.5 314.11-2.05L314.11-2.05 313.86-2.05Q312.21 0.5 308.81 0.5L308.81 0.5Q304.31 0.5 302.49-2.65 300.66-5.8 300.66-12.03 300.66-18.25 302.71-21.4 304.76-24.55 308.61-24.55L308.61-24.55Q311.26-24.55 312.71-23.3L312.71-23.3 312.71-32.05 321.06-32.05 321.06-7.35Q321.06-6.4 321.46-6.08 321.86-5.75 322.91-5.75L322.91-5.75ZM310.84-17.5Q309.76-17.5 309.41-16.23 309.06-14.95 309.06-12.58 309.06-10.2 309.11-9.35 309.16-8.5 309.34-7.63 309.51-6.75 309.89-6.43 310.26-6.1 311.14-6.1 312.01-6.1 312.96-6.55L312.96-6.55 312.96-16.9Q311.91-17.5 310.84-17.5ZM323.51-16.88Q323.51-20.5 325.74-22.53 327.96-24.55 331.86-24.55 335.76-24.55 339.76-23.55L339.76-23.55 338.91-16.6Q333.81-17.75 332.06-17.75L332.06-17.75Q331.01-17.75 331.01-16.9L331.01-16.9Q331.01-16.35 332.16-15.9L332.16-15.9Q336.16-14.45 338.19-12.6 340.21-10.75 340.21-7.05 340.21-3.35 338.31-1.43 336.41 0.5 332.49 0.5 328.56 0.5 324.66-0.5L324.66-0.5 325.21-7.25Q330.21-5.9 331.69-5.9 333.16-5.9 333.16-6.6 333.16-7.3 332.06-7.7L332.06-7.7Q327.61-9.4 325.56-11.33 323.51-13.25 323.51-16.88Z" opacity="1" transform="matrix(1,0,0,1,0,0)" fill="#dedede" class="slogan-text-1" data-fill-palette-color="secondary" id="text-1"></path></svg></g></svg></g></svg></g></svg></g><g transform="matrix(1,0,0,1,457.20577228372747,0)"><svg viewBox="0 0 244.43136 244.43136" height="244.43136" width="244.43136"><g><svg viewBox="0 0 244.43136 244.43136" height="244.43136" width="244.43136"><g transform="matrix(1,0,0,1,90.20844452039344,64.60265593644993)"><svg viewBox="0 0 64.01447095921311 115.22604812710016" height="115.22604812710016" width="64.01447095921311"><g><svg xmlns:dc="http://purl.org/dc/elements/1.1/" xmlns:cc="http://creativecommons.org/ns#" xmlns:rdf="http://www.w3.org/1999/02/22-rdf-syntax-ns#" xmlns:svg="http://www.w3.org/2000/svg" xmlns="http://www.w3.org/2000/svg" xmlns:sodipodi="http://sodipodi.sourceforge.net/DTD/sodipodi-0.dtd" xmlns:inkscape="http://www.inkscape.org/namespaces/inkscape" version="1.1" x="0" y="0" viewBox="24.99999997184743 5 49.999999826211166 90.00000000001292" enable-background="new 0 0 100 100" xml:space="preserve" height="115.22604812710016" width="64.01447095921311" class="icon-cg-0" data-fill-palette-color="accent" id="cg-0"><path d="M25.016 5c0 16.407-0.906 25.127 11.02 32.293 0.992 4.142 6.436 6.706 11.138 7.463-0.021 0.018-0.036 0.037-0.034 0.058 0.009 0.127 0.339 0.051 0.35 0.178 0.034 0.387-0.747 0.38-0.958 0.711-0.069 0.108-0.09 0.247-0.075 0.373 0.185 1.558 1.933 1.509 1.973 4.303 0.166 11.484-5.996 11.002-4.59 13.35 1.246 2.081 3.868 2.701 6.107 2.701 2.24 0 4.864-0.62 6.11-2.701 1.406-2.347-4.758-1.866-4.592-13.35 0.04-2.793 1.788-2.745 1.973-4.303 0.015-0.126-0.004-0.265-0.073-0.373-0.211-0.331-0.993-0.324-0.958-0.711 0.011-0.127 0.341-0.051 0.35-0.178 0.002-0.028-0.024-0.054-0.057-0.076 4.547-0.788 9.682-3.393 11.011-7.295C75.901 30.249 74.984 21.521 74.984 5l-11.68 0 0 7.895-0.053 0c0-1.527-5.956-2.766-13.304-2.766-6.952 0-12.656 1.109-13.25 2.521l0-7.65z m2.394 2.514l6.823 0 0.377 8.447 2.087 3.459 0 12.549c0.14-0.208 0.257-0.365 0.257-0.365 0 0 2.543 3.201 13.046 3.603 10.503 0.402 13.046-3.604 13.046-3.603 0 0 0.118 0.157 0.258 0.365l0-12.549 2.086-3.459 0.377-8.447 6.823 0c2.306 21.803-6.021 26.742-8.567 27.732-0.007-0.617-0.066-0.971-0.339-1.797-0.14-0.423-0.691-1.152-0.69-1.152 0 0-2.543 4.004-13.047 3.601-10.503-0.402-13.044-3.602-13.044-3.601 0 0-0.553 0.729-0.693 1.152-0.266 0.807-0.327 1.165-0.336 1.756-2.66-1.082-10.739-6.176-8.464-27.691z m22.537 3.146c6.546 0 11.853 1.104 11.853 2.465 0 1.361-5.307 2.463-11.853 2.463-6.546 0-11.851-1.102-11.851-2.463 0-1.361 5.305-2.465 11.851-2.465zM53.087 18.5c1.525 0.499 0.916 1.08 0.641 2.281 0 0.593-0.001 1.209 0.046 1.643 0.047 0.433 0.237 1.871 0.166 2.349-0.071 0.479-0.331 1.368-0.875 1.688-2.459 0.964-5.396 0.427-6.13 0-0.544-0.319-0.804-1.208-0.875-1.688-0.071-0.479 0.119-1.916 0.166-2.349 0.047-0.433 0.047-1.049 0.047-1.643-0.425-1.567-0.567-1.664 0.64-2.281 2.047-0.622 4.182-0.541 6.174 0zM42.488 59.305c-4.875 1.269-8.186 3.747-8.186 6.597 0 0-0.507 5.241-1.487 7.66-1.257 3.102-5.496 5.356-5.5 8.465C27.315 89.192 37.447 95 49.947 95c12.5 0 22.634-5.808 22.635-12.973-0.01-3.119-4.283-5.371-5.551-8.484-0.982-2.412-1.487-7.641-1.487-7.641 0-2.84-3.287-5.311-8.134-6.584 2.719 1.03 4.295 2.566 4.299 4.188 0 2.999-5.277 5.43-11.786 5.43-6.509 0-11.786-2.431-11.786-5.43 0.007-1.631 1.606-3.172 4.351-4.201z" fill="#dedede" fill-opacity="1" fill-rule="evenodd" stroke="none" data-fill-palette-color="accent"></path></svg></g></svg></g><g id="text-0"><path d="M13.839 93.447l-3.77-1.821 4.258-8.816 3.769 1.821-1.176 2.436 22.308 5.241-21.42-16.705 2.947-6.104 26.592 6.278-18.054-14.331-1.203 2.491-3.77-1.82 4.285-8.871 3.769 1.82-1.283 2.657 21.417 16.851-2.863 5.929-26.57-6.324 21.424 16.979-3.001 6.214c0 0-0.654-0.157-1.961-0.471v0c-1.344-0.332-2.998-0.733-4.961-1.205-1.961-0.463-4.083-0.974-6.368-1.534-2.288-0.553-4.413-1.066-6.377-1.537-1.964-0.472-3.591-0.835-4.882-1.089v0l-1.961-0.47z" fill="#dedede" data-fill-palette-color="accent"></path><path d="M80.611 48.299l-9.408 6.426c-1.731 1.182-3.226 1.618-4.484 1.307-1.259-0.311-2.374-1.177-3.345-2.598v0l-11.188-16.379c-0.925-1.354-1.357-2.662-1.296-3.925 0.061-1.262 1.042-2.541 2.941-3.838v0l9.408-6.426c1.866-1.274 3.403-1.715 4.612-1.321 1.214 0.39 2.284 1.263 3.209 2.617v0l11.188 16.38c0.971 1.422 1.372 2.776 1.204 4.061-0.163 1.282-1.11 2.514-2.841 3.696zM55.577 33.168l12.65 18.521 10.63-7.261-12.65-18.521z" fill="#dedede" data-fill-palette-color="accent"></path><path d="M114.344 7.098v0c3.164-0.471 4.979 0.859 5.445 3.988v0l0.807 5.423-4.928 0.733-0.88-5.917-8.613 7.455 2.395 16.085 2.988-0.445 0.617 4.14-11.764 1.751-0.616-4.14 3.837-0.571-3.312-22.245-3.837 0.572-0.616-4.14 8.774-1.307 0.799 5.362 6.793-5.811c0.593-0.501 1.297-0.812 2.111-0.933z" fill="#dedede" data-fill-palette-color="accent"></path><path d="M162.725 42.669l3.688 1.237-1.351 4.027-8.469-2.841 2.253-6.717-12.241 2.979c-1.414 0.215-2.657 0.142-3.728-0.216-1.071-0.359-1.799-1.034-2.185-2.025-0.377-0.995-0.396-1.999-0.056-3.012v0l6.857-20.442c0.6-1.787 1.282-2.922 2.046-3.405v0c1.34-0.893 3.024-0.999 5.05-0.32v0l11.798 3.957 3.565-10.627-3.862-1.296 1.331-3.968 8.643 2.899zM160.414 33.7l4.642-13.841-12.389-4.155-7.229 21.555z" fill="#dedede" data-fill-palette-color="accent"></path><path d="M216.36 30.567l-28.614 30.756 2.93 2.726-2.851 3.065-9.47-8.811 2.851-3.064 2.84 2.642 25.764-27.692-2.841-2.642 2.851-3.065z" fill="#dedede" data-fill-palette-color="accent"></path><path d="M201.578 80.125l18.582-8.11c3.724-1.625 6.431-0.501 8.122 3.372v0l4.165 9.544c0.806 1.846 1.03 3.338 0.672 4.474-0.349 1.14-1.484 2.129-3.405 2.968v0l-5.249 2.291-17.185-11.659-4.014 1.752 5.076 11.63 3.274-1.429 1.948 4.463-2.994 1.307c-1.129 0.493-2.248 0.565-3.358 0.218-1.113-0.338-2.024-1.319-2.731-2.94v0l-5.051-11.574c-0.705-1.616-0.805-2.95-0.299-4.003 0.502-1.044 1.318-1.812 2.447-2.304zM223.822 75.786l-11.976 5.227 12.34 8.392 4.687-2.045z" fill="#dedede" data-fill-palette-color="accent"></path><path d="M34.028 149.332l3.778-1.824 4.258 8.816-3.779 1.824-1.181-2.445-17.961 14.218 26.401-6.39 2.948 6.104-21.45 16.923 22.44-5.225-1.208-2.501 3.779-1.824 4.288 8.88-3.778 1.825-1.288-2.666-26.5 6.302-2.868-5.939 21.468-16.864-26.609 6.219-3.001-6.215c0 0 0.529-0.414 1.588-1.243v0c1.095-0.846 2.437-1.895 4.024-3.145 1.585-1.241 3.306-2.583 5.165-4.025 1.855-1.448 3.579-2.794 5.169-4.038 1.585-1.241 2.878-2.289 3.879-3.143v0l1.588-1.243z" fill="#dedede" data-fill-palette-color="accent"></path><path d="M63.239 229.661l-9.416-6.431c-1.725-1.179-2.672-2.411-2.841-3.697-0.169-1.286 0.233-2.639 1.204-4.061v0l11.188-16.379c0.925-1.354 1.987-2.232 3.184-2.634 1.198-0.402 2.743 0.044 4.637 1.338v0l9.416 6.431c1.86 1.271 2.829 2.543 2.908 3.816 0.078 1.273-0.345 2.587-1.27 3.942v0l-11.189 16.379c-0.971 1.422-2.086 2.288-3.345 2.598-1.259 0.31-2.751-0.123-4.476-1.302zM68.222 200.847l-12.645 18.512 10.63 7.261 12.645-18.512z" fill="#dedede" data-fill-palette-color="accent"></path><path d="M118.87 214.964v0c3.171 0.472 4.523 2.273 4.056 5.403v0l-0.807 5.423-4.938-0.735 0.88-5.907-10.399 4.613-2.395 16.085 2.989 0.445-0.617 4.14-11.763-1.751 0.616-4.14 3.837 0.571 3.311-22.234-3.837-0.572 0.617-4.15 8.775 1.307-0.798 5.361 8.19-3.569c0.714-0.313 1.475-0.41 2.283-0.29z" fill="#dedede" data-fill-palette-color="accent"></path><path d="M169.818 231.007l3.678-1.233 1.351 4.026-8.469 2.84-2.253-6.717-7.959 9.755c-0.999 1.024-2.034 1.716-3.106 2.075-1.071 0.359-2.059 0.26-2.964-0.298-0.901-0.567-1.521-1.356-1.86-2.37v0l-6.856-20.442c-0.599-1.787-0.74-3.104-0.42-3.951v0c0.531-1.52 1.81-2.62 3.835-3.299v0l11.789-3.954-3.564-10.628-3.852 1.292-1.331-3.968 8.644-2.899zM162.557 225.248l-4.638-13.831-12.38 4.152 7.226 21.545z" fill="#dedede" data-fill-palette-color="accent"></path><path d="M174.408 176.868l28.615 30.756 2.93-2.726 2.851 3.065-9.47 8.81-2.851-3.064 2.84-2.642-25.764-27.692-2.84 2.642-2.851-3.064z" fill="#dedede" data-fill-palette-color="accent"></path><path d="M221.573 181.127l-18.573-8.105c-3.73-1.628-4.75-4.379-3.06-8.253v0l4.165-9.543c0.803-1.84 1.744-3.018 2.824-3.535 1.079-0.517 2.577-0.357 4.492 0.478v0l5.249 2.291 3.138 20.528 4.014 1.752 5.075-11.631-3.275-1.429 1.948-4.463 2.994 1.307c1.129 0.493 1.943 1.264 2.443 2.314 0.509 1.046 0.409 2.38-0.298 4.002v0l-5.051 11.574c-0.705 1.616-1.615 2.596-2.731 2.94-1.107 0.341-2.225 0.265-3.354-0.227zM203.275 167.773l11.967 5.222-2.238-14.755-4.678-2.041z" fill="#dedede" data-fill-palette-color="accent"></path><path d="M2.868 126.264c0-9.746 7.901-17.646 17.646-17.646 9.746 0 17.646 7.901 17.646 17.647 0 9.746-7.901 17.646-17.646 17.646-9.746 0-17.646-7.901-17.646-17.646z" fill="#dedede" data-fill-palette-color="accent"></path><path d="M206.271 126.264c0-9.746 7.901-17.646 17.646-17.646 9.746 0 17.646 7.901 17.647 17.647 0 9.746-7.901 17.646-17.647 17.646-9.746 0-17.646-7.901-17.646-17.646z" fill="#dedede" data-fill-palette-color="accent"></path></g><g id="text-1"></g></svg></g></svg></g></svg></g><defs></defs></svg><rect width="395.52" height="137.78844798668044" fill="none" stroke="none" visibility="hidden"></rect></g></svg></g></svg>